<svg width="28" height="28" viewBox="0 0 28 28" fill="none" xmlns="http://www.w3.org/2000/svg">
<g clip-path="url(#clip0_25_10)">
<path d="M1.97351 0.481642C1.14922 0.481642 0.481151 1.14963 0.481151 1.97388L0.48114 26.0266C0.48114 26.8502 1.14912 27.5185 1.9735 27.5185H19.1369L19.1348 27.5174H14.9227V17.0474H11.3997V12.9664H14.9227V9.95734C14.9227 6.46519 17.0565 4.5637 20.1714 4.5637C21.6632 4.5637 22.9462 4.67459 23.3197 4.72431V8.37382L21.1596 8.37487C19.4653 8.37487 19.1369 9.17995 19.1369 10.3615V12.9674H23.1781L22.6514 17.0484H19.1369V27.5185H26.0264C26.85 27.5185 27.5183 26.8502 27.5183 26.0266V1.97283C27.5183 1.14898 26.851 0.481222 26.0264 0.481222L1.9735 0.481201L1.97351 0.481642Z" fill="#FEFEFE"/>
</g>
<defs>
<clipPath id="clip0_25_10">
<rect width="28" height="28" rx="5" fill="white"/>
</clipPath>
</defs>
</svg>
