<svg width="40" height="40" viewBox="0 0 40 40" fill="none" xmlns="http://www.w3.org/2000/svg">
<path d="M10.6006 8.00073C8.96064 8.00073 7.87939 9.12073 7.87939 10.6007C7.87939 12.0407 8.92002 13.1995 10.52 13.1995C12.24 13.1995 13.32 12.0407 13.28 10.6007C13.28 9.12073 12.2406 8.00073 10.6006 8.00073ZM25.9594 14.8807C23.1994 14.8807 21.52 16.4801 20.84 17.6001H20.7606L20.52 15.2407H16.0806C16.1206 16.7607 16.2 18.5207 16.2 20.6007V31.9995H21.3194V22.3595C21.3194 21.8795 21.3594 21.4001 21.4794 21.0401C21.8794 20.0801 22.72 19.0795 24.12 19.0795C26 19.0795 26.72 20.5601 26.72 22.7201V31.9995H31.88V22.1207C31.88 17.1607 29.3194 14.8807 25.9594 14.8807ZM8.00064 15.2407V31.9995H13.12V15.2407H8.00064Z" fill="#FEFEFE"/>
</svg>
