<svg width="2048" height="2048" viewBox="0 0 2048 2048" fill="none" xmlns="http://www.w3.org/2000/svg">
<path d="M780.5 1593.5L806.5 1577M780.5 1593.5V1601.5V1649.5M780.5 1593.5L586 1473.3M575 1466.5L599 1450.5L609.5 1456.9M575 1466.5V1481.5M575 1466.5L586 1473.3M806.5 1577L609.5 1456.9M806.5 1577V1595.15M780.5 1649.5L789.955 1644.59M780.5 1649.5L586 1531.19M575 1481.5V1524.5L586 1531.19M575 1481.5L780.5 1608.5L806.5 1595.15M575 1494.5L780.5 1621.5L806.5 1608.15M575 1509L780.5 1636L806.5 1622.65M583.5 1460.83L789.955 1587.5V1644.59M591.5 1455.5L798.5 1582.08V1640.15M789.955 1644.59L798.5 1640.15M798.5 1640.15L806.5 1636V1595.15M586 1531.19C586 1508.58 586 1495.91 586 1473.3M586 1473.3C595.177 1466.89 600.323 1463.3 609.5 1456.9M599 1539.23C599 1516.62 599 1503.94 599 1481.33C608.177 1474.93 613.323 1471.34 622.5 1464.94M612 1547.26C612 1524.65 612 1511.97 612 1489.37C621.177 1482.96 626.323 1479.37 635.5 1472.97M624 1554.68C624 1532.07 624 1519.39 624 1496.78C633.177 1490.38 638.323 1486.79 647.5 1480.39M636.5 1562.4C636.5 1539.79 636.5 1527.12 636.5 1504.51M649.5 1570.43C649.5 1547.83 649.5 1535.15 649.5 1512.54C658.677 1506.14 663.823 1502.02 673 1495.61M663 1578.78C663 1556.17 663 1543.49 663 1520.88C672.177 1514.48 677.323 1510.36 686.5 1503.96M676 1586.81C676 1564.2 676 1551.53 676 1528.92C685.177 1522.52 690.323 1518.39 699.5 1511.99M689.5 1595.15C689.5 1572.55 689.5 1559.87 689.5 1537.26C698.677 1530.86 703.823 1526.74 713 1520.33M704 1604.12C704 1581.51 704 1568.83 704 1546.22C713.177 1539.82 718.323 1535.7 727.5 1529.29M717.677 1612.57C717.677 1589.96 717.677 1577.28 717.677 1554.68C726.855 1548.27 732 1544.15 741.177 1537.75M731.5 1621.11C731.5 1598.5 731.5 1585.83 731.5 1563.22C740.677 1556.81 745.823 1552.69 755 1546.29M744.5 1629.14C744.5 1606.54 744.5 1593.86 744.5 1571.25C753.677 1564.85 759.323 1560.24 768.5 1553.83M757.037 1636.89C757.037 1614.28 757.037 1601.61 757.037 1579C766.215 1572.6 771.86 1567.99 781.037 1561.58M769.677 1644.7C769.677 1622.1 769.677 1609.42 769.677 1586.81C778.855 1580.41 784.5 1575.8 793.677 1569.39M636.5 1504.08C645.677 1497.68 650.823 1494.09 660 1487.69" stroke="#54C0FF"/>
<path d="M780.5 1593.5L806.5 1577M780.5 1593.5V1601.5V1649.5M780.5 1593.5L586 1473.3M575 1466.5L599 1450.5L609.5 1456.9M575 1466.5V1481.5M575 1466.5L586 1473.3M806.5 1577L609.5 1456.9M806.5 1577V1595.15M780.5 1649.5L789.955 1644.59M780.5 1649.5L586 1531.19M575 1481.5V1524.5L586 1531.19M575 1481.5L780.5 1608.5L806.5 1595.15M575 1494.5L780.5 1621.5L806.5 1608.15M575 1509L780.5 1636L806.5 1622.65M583.5 1460.83L789.955 1587.5V1644.59M591.5 1455.5L798.5 1582.08V1640.15M789.955 1644.59L798.5 1640.15M798.5 1640.15L806.5 1636V1595.15M586 1531.19C586 1508.58 586 1495.91 586 1473.3M586 1473.3C595.177 1466.89 600.323 1463.3 609.5 1456.9M599 1539.23C599 1516.62 599 1503.94 599 1481.33C608.177 1474.93 613.323 1471.34 622.5 1464.94M612 1547.26C612 1524.65 612 1511.97 612 1489.37C621.177 1482.96 626.323 1479.37 635.5 1472.97M624 1554.68C624 1532.07 624 1519.39 624 1496.78C633.177 1490.38 638.323 1486.79 647.5 1480.39M636.5 1562.4C636.5 1539.79 636.5 1527.12 636.5 1504.51M649.5 1570.43C649.5 1547.83 649.5 1535.15 649.5 1512.54C658.677 1506.14 663.823 1502.02 673 1495.61M663 1578.78C663 1556.17 663 1543.49 663 1520.88C672.177 1514.48 677.323 1510.36 686.5 1503.96M676 1586.81C676 1564.2 676 1551.53 676 1528.92C685.177 1522.52 690.323 1518.39 699.5 1511.99M689.5 1595.15C689.5 1572.55 689.5 1559.87 689.5 1537.26C698.677 1530.86 703.823 1526.74 713 1520.33M704 1604.12C704 1581.51 704 1568.83 704 1546.22C713.177 1539.82 718.323 1535.7 727.5 1529.29M717.677 1612.57C717.677 1589.96 717.677 1577.28 717.677 1554.68C726.855 1548.27 732 1544.15 741.177 1537.75M731.5 1621.11C731.5 1598.5 731.5 1585.83 731.5 1563.22C740.677 1556.81 745.823 1552.69 755 1546.29M744.5 1629.14C744.5 1606.54 744.5 1593.86 744.5 1571.25C753.677 1564.85 759.323 1560.24 768.5 1553.83M757.037 1636.89C757.037 1614.28 757.037 1601.61 757.037 1579C766.215 1572.6 771.86 1567.99 781.037 1561.58M769.677 1644.7C769.677 1622.1 769.677 1609.42 769.677 1586.81C778.855 1580.41 784.5 1575.8 793.677 1569.39M636.5 1504.08C645.677 1497.68 650.823 1494.09 660 1487.69" stroke="#F9F9F9" stroke-opacity="0.2"/>
<g filter="url(#filter0_f_30_6)">
<path d="M780.5 1593.5L806.5 1577M780.5 1593.5V1601.5V1649.5M780.5 1593.5L586 1473.3M575 1466.5L599 1450.5L609.5 1456.9M575 1466.5V1481.5M575 1466.5L586 1473.3M806.5 1577L609.5 1456.9M806.5 1577V1595.15M780.5 1649.5L789.955 1644.59M780.5 1649.5L586 1531.19M575 1481.5V1524.5L586 1531.19M575 1481.5L780.5 1608.5L806.5 1595.15M575 1494.5L780.5 1621.5L806.5 1608.15M575 1509L780.5 1636L806.5 1622.65M583.5 1460.83L789.955 1587.5V1644.59M591.5 1455.5L798.5 1582.08V1640.15M789.955 1644.59L798.5 1640.15M798.5 1640.15L806.5 1636V1595.15M586 1531.19C586 1508.58 586 1495.91 586 1473.3M586 1473.3C595.177 1466.89 600.323 1463.3 609.5 1456.9M599 1539.23C599 1516.62 599 1503.94 599 1481.33C608.177 1474.93 613.323 1471.34 622.5 1464.94M612 1547.26C612 1524.65 612 1511.97 612 1489.37C621.177 1482.96 626.323 1479.37 635.5 1472.97M624 1554.68C624 1532.07 624 1519.39 624 1496.78C633.177 1490.38 638.323 1486.79 647.5 1480.39M636.5 1562.4C636.5 1539.79 636.5 1527.12 636.5 1504.51M649.5 1570.43C649.5 1547.83 649.5 1535.15 649.5 1512.54C658.677 1506.14 663.823 1502.02 673 1495.61M663 1578.78C663 1556.17 663 1543.49 663 1520.88C672.177 1514.48 677.323 1510.36 686.5 1503.96M676 1586.81C676 1564.2 676 1551.53 676 1528.92C685.177 1522.52 690.323 1518.39 699.5 1511.99M689.5 1595.15C689.5 1572.55 689.5 1559.87 689.5 1537.26C698.677 1530.86 703.823 1526.74 713 1520.33M704 1604.12C704 1581.51 704 1568.83 704 1546.22C713.177 1539.82 718.323 1535.7 727.5 1529.29M717.677 1612.57C717.677 1589.96 717.677 1577.28 717.677 1554.68C726.855 1548.27 732 1544.15 741.177 1537.75M731.5 1621.11C731.5 1598.5 731.5 1585.83 731.5 1563.22C740.677 1556.81 745.823 1552.69 755 1546.29M744.5 1629.14C744.5 1606.54 744.5 1593.86 744.5 1571.25C753.677 1564.85 759.323 1560.24 768.5 1553.83M757.037 1636.89C757.037 1614.28 757.037 1601.61 757.037 1579C766.215 1572.6 771.86 1567.99 781.037 1561.58M769.677 1644.7C769.677 1622.1 769.677 1609.42 769.677 1586.81C778.855 1580.41 784.5 1575.8 793.677 1569.39M636.5 1504.08C645.677 1497.68 650.823 1494.09 660 1487.69" stroke="#66BFF2" stroke-width="2"/>
</g>
<g filter="url(#filter1_f_30_6)">
<path d="M423.69 1340.44L436.146 1348.14L447.604 1355.23L458.564 1362.01L471.019 1369.72L482.976 1377.12L508.882 1393.14L522.832 1401.77L536.283 1410.09L587.5 1441.78V1454.23L562.731 1470.02L562.5 1470.16V1514.11L550.762 1506.9L538.835 1499.57L525.762 1491.55L511.762 1482.95L498.262 1474.66L484.262 1466.06L458.262 1450.09L446.262 1442.73L433.762 1435.05L422.762 1428.29L411.262 1421.23L398.762 1413.56L386 1405.72V1348.77L394.271 1343.42L402.771 1337.92L411.006 1332.59L423.69 1340.44Z" stroke="#66BFF2"/>
</g>
<path d="M562.5 1457.5L385 1348.5M562.5 1457.5V1470.44M562.5 1457.5L571 1452M562.5 1515L385 1406V1392.49M562.5 1515V1500M562.5 1515L571 1511.26M385 1348.5V1363.24M385 1348.5L393.5 1343M587.5 1441.5L410.5 1332L402 1337.5M587.5 1441.5V1454.5M587.5 1441.5L579 1447M587.5 1454.5L562.5 1470.44M587.5 1454.5V1458.5M398 1413.98V1356.48L423.5 1339.98M410.5 1421.66V1364.16L436 1347.66M422 1428.72V1371.22L447.5 1354.72M433 1435.48V1377.98L458.5 1361.48M445.5 1443.15V1385.65L471 1369.15M457.5 1450.52V1393.02L483 1376.52M470.5 1458.5V1401L496 1384.5M483.5 1466.49V1408.99L509 1392.49M497.5 1475.08V1417.58L523 1401.08M511 1483.37V1425.87L536.5 1409.37M525 1491.97V1434.47L550 1418.84M538.073 1500V1442.5L563.073 1426.87M550 1507.32V1449.82L575 1434.2M562.5 1500L385 1392.49M562.5 1500V1483.37M562.5 1500L575 1494M385 1392.49V1377.98M562.5 1483.37L385 1377.98M562.5 1483.37V1470.44M562.5 1483.37L575 1476M385 1377.98V1363.24M562.5 1470.44L385 1363.24M393.5 1343L571 1452M393.5 1343L402 1337.5M571 1452L579 1447M571 1452V1511.26M579 1447L402 1337.5M579 1447V1463.5M575 1509.5L571 1511.26" stroke="#54C0FF"/>
<path d="M562.5 1457.5L385 1348.5M562.5 1457.5V1470.44M562.5 1457.5L571 1452M562.5 1515L385 1406V1392.49M562.5 1515V1500M562.5 1515L571 1511.26M385 1348.5V1363.24M385 1348.5L393.5 1343M587.5 1441.5L410.5 1332L402 1337.5M587.5 1441.5V1454.5M587.5 1441.5L579 1447M587.5 1454.5L562.5 1470.44M587.5 1454.5V1458.5M398 1413.98V1356.48L423.5 1339.98M410.5 1421.66V1364.16L436 1347.66M422 1428.72V1371.22L447.5 1354.72M433 1435.48V1377.98L458.5 1361.48M445.5 1443.15V1385.65L471 1369.15M457.5 1450.52V1393.02L483 1376.52M470.5 1458.5V1401L496 1384.5M483.5 1466.49V1408.99L509 1392.49M497.5 1475.08V1417.58L523 1401.08M511 1483.37V1425.87L536.5 1409.37M525 1491.97V1434.47L550 1418.84M538.073 1500V1442.5L563.073 1426.87M550 1507.32V1449.82L575 1434.2M562.5 1500L385 1392.49M562.5 1500V1483.37M562.5 1500L575 1494M385 1392.49V1377.98M562.5 1483.37L385 1377.98M562.5 1483.37V1470.44M562.5 1483.37L575 1476M385 1377.98V1363.24M562.5 1470.44L385 1363.24M393.5 1343L571 1452M393.5 1343L402 1337.5M571 1452L579 1447M571 1452V1511.26M579 1447L402 1337.5M579 1447V1463.5M575 1509.5L571 1511.26" stroke="#F9F9F9" stroke-opacity="0.2"/>
<path d="M273 1277.5V1288.5M273 1277.5L281 1272.67M273 1277.5L373.5 1341.21M385 1406L373.5 1397.63M385 1393L273 1313M273 1313V1324.5L373.5 1397.63M273 1313V1300.5M385 1378L273 1300.5M273 1300.5V1288.5M385 1363L273 1288.5M393.5 1342.71L385 1348.5L373.5 1341.21M393.5 1342.71L281 1272.67M393.5 1342.71L401 1337.61M281 1272.67L289 1267.83M401 1337.61L408.5 1332.5L306 1268.61M401 1337.61L289 1267.83M289 1267.83L297 1263L306 1268.61M373.5 1397.63V1341.21M373.5 1341.21L397.5 1325.78M361 1388.54V1333.29L385 1317.85M349 1379.8V1325.68L373.17 1310.48M337 1371.07V1318.07L360 1302.84M325.021 1362.35V1310.48L348.021 1295.25M314.227 1354.5V1303.63L337.227 1288.41M302.972 1346.31V1296.5L325.972 1281.27M293.507 1339.42V1290.5L316.507 1275.27M283 1331.78V1283.84L306 1268.61" stroke="#54C0FF"/>
<path d="M273 1277.5V1288.5M273 1277.5L281 1272.67M273 1277.5L373.5 1341.21M385 1406L373.5 1397.63M385 1393L273 1313M273 1313V1324.5L373.5 1397.63M273 1313V1300.5M385 1378L273 1300.5M273 1300.5V1288.5M385 1363L273 1288.5M393.5 1342.71L385 1348.5L373.5 1341.21M393.5 1342.71L281 1272.67M393.5 1342.71L401 1337.61M281 1272.67L289 1267.83M401 1337.61L408.5 1332.5L306 1268.61M401 1337.61L289 1267.83M289 1267.83L297 1263L306 1268.61M373.5 1397.63V1341.21M373.5 1341.21L397.5 1325.78M361 1388.54V1333.29L385 1317.85M349 1379.8V1325.68L373.17 1310.48M337 1371.07V1318.07L360 1302.84M325.021 1362.35V1310.48L348.021 1295.25M314.227 1354.5V1303.63L337.227 1288.41M302.972 1346.31V1296.5L325.972 1281.27M293.507 1339.42V1290.5L316.507 1275.27M283 1331.78V1283.84L306 1268.61" stroke="#F9F9F9" stroke-opacity="0.2"/>
<g filter="url(#filter2_f_30_6)">
<path d="M273 1277.5V1288.5M273 1277.5L281 1272.67M273 1277.5L373.5 1341.21M385 1406L373.5 1397.63M385 1393L273 1313M273 1313V1324.5L373.5 1397.63M273 1313V1300.5M385 1378L273 1300.5M273 1300.5V1288.5M385 1363L273 1288.5M393.5 1342.71L385 1348.5L373.5 1341.21M393.5 1342.71L281 1272.67M393.5 1342.71L401 1337.61M281 1272.67L289 1267.83M401 1337.61L408.5 1332.5L306 1268.61M401 1337.61L289 1267.83M289 1267.83L297 1263L306 1268.61M373.5 1397.63V1341.21M373.5 1341.21L397.5 1325.78M361 1388.54V1333.29L385 1317.85M349 1379.8V1325.68L373.17 1310.48M337 1371.07V1318.07L360 1302.84M325.021 1362.35V1310.48L348.021 1295.25M314.227 1354.5V1303.63L337.227 1288.41M302.972 1346.31V1296.5L325.972 1281.27M293.507 1339.42V1290.5L316.507 1275.27M283 1331.78V1283.84L306 1268.61" stroke="#66BFF2"/>
</g>
<path d="M268.5 1321L273 1318.5M268.5 1321V1309.5M268.5 1321L133.5 1239.91M268.5 1260V1274M268.5 1260L276 1255M268.5 1260L133.5 1182.66M292 1244.5L283.5 1250M292 1244.5L279.25 1237.82L278.722 1237.52M292 1244.5V1258M292 1265.5V1258M124.5 1177.5V1189.5M124.5 1177.5L133.5 1173.17M124.5 1177.5L133.5 1182.66M268.5 1274L124.5 1189.5M268.5 1274V1285.5M268.5 1274L292 1258M124.5 1189.5V1200M268.5 1285.5L124.5 1200M268.5 1285.5V1298M268.5 1285.5L273 1282.5M124.5 1200V1212M268.5 1298L124.5 1212M268.5 1298V1309.5M268.5 1298L273 1295M124.5 1212V1223.25M268.5 1309.5L124.5 1223.25M268.5 1309.5L273 1307.12M124.5 1223.25V1234.5L133.5 1239.91M276 1255L133.5 1173.17M276 1255L283.5 1250M276 1255V1275.5M133.5 1173.17L142.5 1168.83M142.5 1168.83L151.5 1164.5L160 1169.38M142.5 1168.83L283.5 1250M283.5 1250V1270.51M133.5 1239.91V1182.66M133.5 1182.66L160 1169.38M143.645 1246V1188.75L169 1174.54M153.645 1251.45V1194.2L179 1180.28M163.773 1258.09V1200L189.5 1186.31M174.442 1264.5V1206.41L199.414 1192M184.442 1270.51V1211.84L208.5 1197.21M194.442 1276.51V1217.57L218 1202.67M204.355 1282.19V1223.25L227.5 1208.12M214.355 1288.48V1228.98L237.5 1213.86M224.355 1294.48V1234.71L247 1219.31M234.355 1300.21V1240.44L257 1225.05M245.392 1307.12V1246.76L267.5 1231.08M257 1314.09V1253.41L278.722 1237.52M160 1169.38L169 1174.54M169 1174.54L178 1179.71L179 1180.28M179 1180.28L187.5 1185.16L189.5 1186.31M189.5 1186.31L197 1190.61L199.414 1192M199.414 1192L206 1195.78L208.5 1197.21M208.5 1197.21L215.5 1201.23L218 1202.67M218 1202.67L224.52 1206.41L227.5 1208.12M227.5 1208.12L233.985 1211.84L237.5 1213.86M237.5 1213.86L243.5 1217.3L243.967 1217.57L247 1219.31M247 1219.31L253.29 1222.92L253.862 1223.25L254.667 1223.71L257 1225.05M257 1225.05L263.844 1228.98L265 1229.64L266.5 1230.5L267.5 1231.08M267.5 1231.08L278.722 1237.52" stroke="#54C0FF"/>
<path d="M268.5 1321L273 1318.5M268.5 1321V1309.5M268.5 1321L133.5 1239.91M268.5 1260V1274M268.5 1260L276 1255M268.5 1260L133.5 1182.66M292 1244.5L283.5 1250M292 1244.5L279.25 1237.82L278.722 1237.52M292 1244.5V1258M292 1265.5V1258M124.5 1177.5V1189.5M124.5 1177.5L133.5 1173.17M124.5 1177.5L133.5 1182.66M268.5 1274L124.5 1189.5M268.5 1274V1285.5M268.5 1274L292 1258M124.5 1189.5V1200M268.5 1285.5L124.5 1200M268.5 1285.5V1298M268.5 1285.5L273 1282.5M124.5 1200V1212M268.5 1298L124.5 1212M268.5 1298V1309.5M268.5 1298L273 1295M124.5 1212V1223.25M268.5 1309.5L124.5 1223.25M268.5 1309.5L273 1307.12M124.5 1223.25V1234.5L133.5 1239.91M276 1255L133.5 1173.17M276 1255L283.5 1250M276 1255V1275.5M133.5 1173.17L142.5 1168.83M142.5 1168.83L151.5 1164.5L160 1169.38M142.5 1168.83L283.5 1250M283.5 1250V1270.51M133.5 1239.91V1182.66M133.5 1182.66L160 1169.38M143.645 1246V1188.75L169 1174.54M153.645 1251.45V1194.2L179 1180.28M163.773 1258.09V1200L189.5 1186.31M174.442 1264.5V1206.41L199.414 1192M184.442 1270.51V1211.84L208.5 1197.21M194.442 1276.51V1217.57L218 1202.67M204.355 1282.19V1223.25L227.5 1208.12M214.355 1288.48V1228.98L237.5 1213.86M224.355 1294.48V1234.71L247 1219.31M234.355 1300.21V1240.44L257 1225.05M245.392 1307.12V1246.76L267.5 1231.08M257 1314.09V1253.41L278.722 1237.52M160 1169.38L169 1174.54M169 1174.54L178 1179.71L179 1180.28M179 1180.28L187.5 1185.16L189.5 1186.31M189.5 1186.31L197 1190.61L199.414 1192M199.414 1192L206 1195.78L208.5 1197.21M208.5 1197.21L215.5 1201.23L218 1202.67M218 1202.67L224.52 1206.41L227.5 1208.12M227.5 1208.12L233.985 1211.84L237.5 1213.86M237.5 1213.86L243.5 1217.3L243.967 1217.57L247 1219.31M247 1219.31L253.29 1222.92L253.862 1223.25L254.667 1223.71L257 1225.05M257 1225.05L263.844 1228.98L265 1229.64L266.5 1230.5L267.5 1231.08M267.5 1231.08L278.722 1237.52" stroke="#F9F9F9" stroke-opacity="0.2"/>
<g filter="url(#filter3_f_30_6)">
<path d="M268.5 1321L273 1318.5M268.5 1321V1309.5M268.5 1321L133.5 1239.91M268.5 1260V1274M268.5 1260L276 1255M268.5 1260L133.5 1182.66M292 1244.5L283.5 1250M292 1244.5L279.25 1237.82L278.722 1237.52M292 1244.5V1258M292 1265.5V1258M124.5 1177.5V1189.5M124.5 1177.5L133.5 1173.17M124.5 1177.5L133.5 1182.66M268.5 1274L124.5 1189.5M268.5 1274V1285.5M268.5 1274L292 1258M124.5 1189.5V1200M268.5 1285.5L124.5 1200M268.5 1285.5V1298M268.5 1285.5L273 1282.5M124.5 1200V1212M268.5 1298L124.5 1212M268.5 1298V1309.5M268.5 1298L273 1295M124.5 1212V1223.25M268.5 1309.5L124.5 1223.25M268.5 1309.5L273 1307.12M124.5 1223.25V1234.5L133.5 1239.91M276 1255L133.5 1173.17M276 1255L283.5 1250M276 1255V1275.5M133.5 1173.17L142.5 1168.83M142.5 1168.83L151.5 1164.5L160 1169.38M142.5 1168.83L283.5 1250M283.5 1250V1270.51M133.5 1239.91V1182.66M133.5 1182.66L160 1169.38M143.645 1246V1188.75L169 1174.54M153.645 1251.45V1194.2L179 1180.28M163.773 1258.09V1200L189.5 1186.31M174.442 1264.5V1206.41L199.414 1192M184.442 1270.51V1211.84L208.5 1197.21M194.442 1276.51V1217.57L218 1202.67M204.355 1282.19V1223.25L227.5 1208.12M214.355 1288.48V1228.98L237.5 1213.86M224.355 1294.48V1234.71L247 1219.31M234.355 1300.21V1240.44L257 1225.05M245.392 1307.12V1246.76L267.5 1231.08M257 1314.09V1253.41L278.722 1237.52M160 1169.38L169 1174.54M169 1174.54L178 1179.71L179 1180.28M179 1180.28L187.5 1185.16L189.5 1186.31M189.5 1186.31L197 1190.61L199.414 1192M199.414 1192L206 1195.78L208.5 1197.21M208.5 1197.21L215.5 1201.23L218 1202.67M218 1202.67L224.52 1206.41L227.5 1208.12M227.5 1208.12L233.985 1211.84L237.5 1213.86M237.5 1213.86L243.5 1217.3L243.967 1217.57L247 1219.31M247 1219.31L253.29 1222.92L253.862 1223.25L254.667 1223.71L257 1225.05M257 1225.05L263.844 1228.98L265 1229.64L266.5 1230.5L267.5 1231.08M267.5 1231.08L278.722 1237.52" stroke="#66BFF2"/>
</g>
<path d="M114.5 1228L103.75 1220.89M114.5 1228V1210M114.5 1228L119.25 1224.5C121.105 1223.13 122.145 1222.37 124 1221M114.5 1158.5L103.75 1152.85M114.5 1158.5V1172M114.5 1158.5L129 1148.71M214.5 1091L204.13 1098M214.5 1091V1121.5L150.5 1165M214.5 1091L186.741 1075.62M85 1143L93 1147.2M85 1143V1156.5M85 1143L100.5 1132.79M215.5 1057L100.5 1132.79M225 1051L326.5 983M225 1086L229 1083.24M331.5 1012.5L322.25 1018.88M331.5 1012.5V1073.74M331.5 1012.5L305.603 997M177.5 1179.5L183.5 1175.25M213.5 1154L204.13 1160.64M226 1147L229 1144.92M286.5 1105L283 1107.43M314.5 1086L322.25 1080.41M366.5 1048.5L360.436 1052.87M93 1213.79L85 1208.5V1191.75M93 1213.79V1147.2M93 1213.79L103.75 1220.89M93 1147.2L103.75 1152.85M93 1147.2L215.5 1065.5M103.75 1152.85V1220.89M103.75 1152.85L214.5 1078M225 1060L327.5 991M225 1071.5L328.5 1002M114.5 1210L124.5 1203.5M114.5 1210V1189M114.5 1210L85 1191.75M114.5 1189L124.5 1182M114.5 1189V1172M114.5 1189L84 1173M114.5 1172L214.5 1105M114.5 1172L85 1156.5M213.5 1137.5L164 1171.5M226 1099.5L344.5 1019.5M225 1116.5L351.5 1029.5V1059.32M226 1131L358 1040.5M85 1191.75V1175V1158.5V1156.5M129 1175.5V1148.71M129 1148.71L145.5 1137.57M129 1148.71L100.5 1132.79M145.5 1167.5V1137.57M145.5 1137.57L159.5 1128.12M145.5 1137.57L117 1121.65M159.5 1128.12V1169M159.5 1128.12L172 1119.69M159.5 1128.12L131 1112.2M172 1119.69V1175.5M172 1119.69L183.5 1111.93M172 1119.69L143.5 1103.76M183.5 1111.93V1175.25M183.5 1111.93L193.759 1105M183.5 1111.93L156 1096.21M183.5 1175.25L193.759 1167.98M193.759 1105V1167.98M193.759 1105L204.13 1098M193.759 1105L166 1089.62M193.759 1167.98L204.13 1160.64M204.13 1098V1160.64M204.13 1098L176.37 1082.62M229 1083.24V1144.92M229 1083.24L241 1074.96M229 1083.24L225 1081M229 1144.92L241 1136.59M241 1074.96V1136.59M241 1074.96L251.5 1067.71M241 1074.96L225 1065.5M241 1136.59L251.5 1129.3M251.5 1067.71V1129.3M251.5 1067.71L262.673 1060M251.5 1067.71L225 1052.5M251.5 1129.3L262.673 1121.54M262.673 1060V1121.54M262.673 1060L273 1052.87M262.673 1060L235 1044.17M262.673 1121.54L273 1114.37M273 1052.87V1114.37M273 1052.87L283 1045.97M273 1052.87L245.327 1037.04M273 1114.37L283 1107.43M283 1045.97V1107.43M283 1045.97L293.5 1038.73M283 1045.97L255.327 1030.14M293.5 1038.73V1094.5M293.5 1038.73L303.5 1031.82M293.5 1038.73L266.794 1023M303.5 1031.82V1087.5M303.5 1031.82L313 1025.27M303.5 1031.82L277 1016.16M313 1025.27V1086M313 1025.27L322.25 1018.88M313 1025.27L286.5 1009.8M322.25 1018.88V1080.41M322.25 1018.88L295.901 1003.5M322.25 1080.41L331.5 1073.74M331.5 1073.74L342 1066.17M342 1066.17V1015.5M342 1066.17L351.5 1059.32M351.5 1059.32L360.436 1052.87M360.436 1052.87V1041.5M214.5 1075.62L199.246 1067.71M327.5 998L315 990.704" stroke="#54C0FF"/>
<path d="M114.5 1228L103.75 1220.89M114.5 1228V1210M114.5 1228L119.25 1224.5C121.105 1223.13 122.145 1222.37 124 1221M114.5 1158.5L103.75 1152.85M114.5 1158.5V1172M114.5 1158.5L129 1148.71M214.5 1091L204.13 1098M214.5 1091V1121.5L150.5 1165M214.5 1091L186.741 1075.62M85 1143L93 1147.2M85 1143V1156.5M85 1143L100.5 1132.79M215.5 1057L100.5 1132.79M225 1051L326.5 983M225 1086L229 1083.24M331.5 1012.5L322.25 1018.88M331.5 1012.5V1073.74M331.5 1012.5L305.603 997M177.5 1179.5L183.5 1175.25M213.5 1154L204.13 1160.64M226 1147L229 1144.92M286.5 1105L283 1107.43M314.5 1086L322.25 1080.41M366.5 1048.5L360.436 1052.87M93 1213.79L85 1208.5V1191.75M93 1213.79V1147.2M93 1213.79L103.75 1220.89M93 1147.2L103.75 1152.85M93 1147.2L215.5 1065.5M103.75 1152.85V1220.89M103.75 1152.85L214.5 1078M225 1060L327.5 991M225 1071.5L328.5 1002M114.5 1210L124.5 1203.5M114.5 1210V1189M114.5 1210L85 1191.75M114.5 1189L124.5 1182M114.5 1189V1172M114.5 1189L84 1173M114.5 1172L214.5 1105M114.5 1172L85 1156.5M213.5 1137.5L164 1171.5M226 1099.5L344.5 1019.5M225 1116.5L351.5 1029.5V1059.32M226 1131L358 1040.5M85 1191.75V1175V1158.5V1156.5M129 1175.5V1148.71M129 1148.71L145.5 1137.57M129 1148.71L100.5 1132.79M145.5 1167.5V1137.57M145.5 1137.57L159.5 1128.12M145.5 1137.57L117 1121.65M159.5 1128.12V1169M159.5 1128.12L172 1119.69M159.5 1128.12L131 1112.2M172 1119.69V1175.5M172 1119.69L183.5 1111.93M172 1119.69L143.5 1103.76M183.5 1111.93V1175.25M183.5 1111.93L193.759 1105M183.5 1111.93L156 1096.21M183.5 1175.25L193.759 1167.98M193.759 1105V1167.98M193.759 1105L204.13 1098M193.759 1105L166 1089.62M193.759 1167.98L204.13 1160.64M204.13 1098V1160.64M204.13 1098L176.37 1082.62M229 1083.24V1144.92M229 1083.24L241 1074.96M229 1083.24L225 1081M229 1144.92L241 1136.59M241 1074.96V1136.59M241 1074.96L251.5 1067.71M241 1074.96L225 1065.5M241 1136.59L251.5 1129.3M251.5 1067.71V1129.3M251.5 1067.71L262.673 1060M251.5 1067.71L225 1052.5M251.5 1129.3L262.673 1121.54M262.673 1060V1121.54M262.673 1060L273 1052.87M262.673 1060L235 1044.17M262.673 1121.54L273 1114.37M273 1052.87V1114.37M273 1052.87L283 1045.97M273 1052.87L245.327 1037.04M273 1114.37L283 1107.43M283 1045.97V1107.43M283 1045.97L293.5 1038.73M283 1045.97L255.327 1030.14M293.5 1038.73V1094.5M293.5 1038.73L303.5 1031.82M293.5 1038.73L266.794 1023M303.5 1031.82V1087.5M303.5 1031.82L313 1025.27M303.5 1031.82L277 1016.16M313 1025.27V1086M313 1025.27L322.25 1018.88M313 1025.27L286.5 1009.8M322.25 1018.88V1080.41M322.25 1018.88L295.901 1003.5M322.25 1080.41L331.5 1073.74M331.5 1073.74L342 1066.17M342 1066.17V1015.5M342 1066.17L351.5 1059.32M351.5 1059.32L360.436 1052.87M360.436 1052.87V1041.5M214.5 1075.62L199.246 1067.71M327.5 998L315 990.704" stroke="#F9F9F9" stroke-opacity="0.2"/>
<g filter="url(#filter4_f_30_6)">
<path d="M114.5 1228L103.75 1220.89M114.5 1228V1210M114.5 1228L119.25 1224.5C121.105 1223.13 122.145 1222.37 124 1221M114.5 1158.5L103.75 1152.85M114.5 1158.5V1172M114.5 1158.5L129 1148.71M214.5 1091L204.13 1098M214.5 1091V1121.5L150.5 1165M214.5 1091L186.741 1075.62M85 1143L93 1147.2M85 1143V1156.5M85 1143L100.5 1132.79M215.5 1057L100.5 1132.79M225 1051L326.5 983M225 1086L229 1083.24M331.5 1012.5L322.25 1018.88M331.5 1012.5V1073.74M331.5 1012.5L305.603 997M177.5 1179.5L183.5 1175.25M213.5 1154L204.13 1160.64M226 1147L229 1144.92M286.5 1105L283 1107.43M314.5 1086L322.25 1080.41M366.5 1048.5L360.436 1052.87M93 1213.79L85 1208.5V1191.75M93 1213.79V1147.2M93 1213.79L103.75 1220.89M93 1147.2L103.75 1152.85M93 1147.2L215.5 1065.5M103.75 1152.85V1220.89M103.75 1152.85L214.5 1078M225 1060L327.5 991M225 1071.5L328.5 1002M114.5 1210L124.5 1203.5M114.5 1210V1189M114.5 1210L85 1191.75M114.5 1189L124.5 1182M114.5 1189V1172M114.5 1189L84 1173M114.5 1172L214.5 1105M114.5 1172L85 1156.5M213.5 1137.5L164 1171.5M226 1099.5L344.5 1019.5M225 1116.5L351.5 1029.5V1059.32M226 1131L358 1040.5M85 1191.75V1175V1158.5V1156.5M129 1175.5V1148.71M129 1148.71L145.5 1137.57M129 1148.71L100.5 1132.79M145.5 1167.5V1137.57M145.5 1137.57L159.5 1128.12M145.5 1137.57L117 1121.65M159.5 1128.12V1169M159.5 1128.12L172 1119.69M159.5 1128.12L131 1112.2M172 1119.69V1175.5M172 1119.69L183.5 1111.93M172 1119.69L143.5 1103.76M183.5 1111.93V1175.25M183.5 1111.93L193.759 1105M183.5 1111.93L156 1096.21M183.5 1175.25L193.759 1167.98M193.759 1105V1167.98M193.759 1105L204.13 1098M193.759 1105L166 1089.62M193.759 1167.98L204.13 1160.64M204.13 1098V1160.64M204.13 1098L176.37 1082.62M229 1083.24V1144.92M229 1083.24L241 1074.96M229 1083.24L225 1081M229 1144.92L241 1136.59M241 1074.96V1136.59M241 1074.96L251.5 1067.71M241 1074.96L225 1065.5M241 1136.59L251.5 1129.3M251.5 1067.71V1129.3M251.5 1067.71L262.673 1060M251.5 1067.71L225 1052.5M251.5 1129.3L262.673 1121.54M262.673 1060V1121.54M262.673 1060L273 1052.87M262.673 1060L235 1044.17M262.673 1121.54L273 1114.37M273 1052.87V1114.37M273 1052.87L283 1045.97M273 1052.87L245.327 1037.04M273 1114.37L283 1107.43M283 1045.97V1107.43M283 1045.97L293.5 1038.73M283 1045.97L255.327 1030.14M293.5 1038.73V1094.5M293.5 1038.73L303.5 1031.82M293.5 1038.73L266.794 1023M303.5 1031.82V1087.5M303.5 1031.82L313 1025.27M303.5 1031.82L277 1016.16M313 1025.27V1086M313 1025.27L322.25 1018.88M313 1025.27L286.5 1009.8M322.25 1018.88V1080.41M322.25 1018.88L295.901 1003.5M322.25 1080.41L331.5 1073.74M331.5 1073.74L342 1066.17M342 1066.17V1015.5M342 1066.17L351.5 1059.32M351.5 1059.32L360.436 1052.87M360.436 1052.87V1041.5M214.5 1075.62L199.246 1067.71M327.5 998L315 990.704" stroke="#66BFF2"/>
</g>
<path d="M595 1282V1295.5M595 1282L603 1276.76M595 1282L607.5 1285.47M726.5 1365.5L607.5 1333.83M727.5 1302.5L620.5 1275.3M743.5 1369.5L746.5 1370.14M896.5 1386L840 1387L811 1384L746.5 1370.14M741 1305.5L744 1306.2M895 1325L892 1325.05M905.5 1325L911.5 1324.64M982 1329.5V1339M982 1329.5L977.125 1323M982 1329.5L971.5 1331.96M907.5 1385L954.5 1379L964.5 1375M941.5 1339L905.5 1341.5M941.5 1339V1381M941.5 1339L971.5 1331.96M941.5 1339V1322.52M896 1342.5L840 1343L825.5 1341.25L811 1339.5L746.5 1324.76M741 1323.5L746.5 1324.76M726.5 1318.5L607.5 1285.47M595 1295.5L726.5 1331.5M595 1295.5V1307.5M741 1336L811 1351.5L840 1354.5L896 1353.5M906 1353L941.5 1349.5L982 1339M982 1339V1350.5L971.5 1353.22M906 1364.5L941.5 1361L971.5 1353.22M896 1365.5L840 1366.5L811 1363L741 1347.5M726.5 1343.5L595 1307.5M595 1307.5V1319.75M595 1319.75V1330.5L607.5 1333.83M595 1319.75L726.5 1354.5M742 1358.5L811 1373L840 1376L896.5 1374.5M907.5 1374L941.5 1370.5L973 1361.5M603 1276.76L609.5 1272.5L619.5 1275.04L620.5 1275.3M603 1276.76L727.5 1310M741 1313.5L811 1330L840 1334.5L895 1334M905.5 1333L939.5 1331L977.125 1323M977.125 1323L973 1317.5L964.25 1318.89M607.5 1333.83V1285.47M607.5 1285.47L620.5 1275.3M619.5 1337.16V1288.8L632.5 1278.35M631.5 1340.49V1292.13L645 1281.53M643.637 1343.86V1295.5L657.5 1284.7M656 1347.29V1298.93L670 1287.88M668 1350.62V1302.26L682.5 1291.06M680.5 1354.09V1305.73L695 1294.24M692.5 1357.42V1309.06L707.5 1297.42M704.5 1360.75V1312.39L719.633 1300.5M716.5 1364.08V1315.72L727.5 1306.5M746.5 1324.76V1370.14M746.5 1324.76L762.364 1310.5M758 1372.77V1327.39L773 1312.99M769.438 1375.39V1330L784 1315.56M781 1378.03V1332.64L794.409 1318M792 1380.54V1335.16L804 1320.24M803 1383.06V1337.67L814 1322.35M813 1384.21V1339.74L822.188 1323.5M824 1385.53V1341.07L831.5 1324.81M835 1386.86V1342.4L841 1325.98M846 1387.41V1342.95L850.5 1325.81M857.5 1387.47V1343L860.5 1325.63M869 1387.21V1342.74L871.5 1325.43M880 1387.11V1342.64L882 1325.24M891 1387.01V1342.54L892 1325.05M909.5 1384.74V1341.22L911.5 1324.64M920.668 1340.45V1383.32M930.668 1382.62V1339.75L932 1323.39M951.5 1379.38V1336.51L948.5 1321.41M961.75 1376.1V1334.25L955.5 1320.29M971.5 1331.96V1353.22M971.5 1331.96L964.25 1318.89M971.5 1360.5V1364.5M741 1308.5L744 1306.2M744 1306.2L753.818 1308.5M741 1319.5L753.818 1308.5M753.818 1308.5L762.364 1310.5M762.364 1310.5L773 1312.99M773 1312.99L784 1315.56M784 1315.56L794.409 1318M794.409 1318L804 1320.24M804 1320.24L811.5 1322L814 1322.35M814 1322.35L822.188 1323.5M822.188 1323.5L831.5 1324.81M831.5 1324.81L840 1326L841 1325.98M841 1325.98L850.5 1325.81M850.5 1325.81L860.5 1325.63M860.5 1325.63L871.5 1325.43M871.5 1325.43L882 1325.24M882 1325.24L892 1325.05M911.5 1324.64L922.5 1323.97M920.668 1339.75L922.5 1323.97M922.5 1323.97L932 1323.39M932 1323.39L938.5 1323L941.5 1322.52M941.5 1322.52L948.5 1321.41M948.5 1321.41L955.5 1320.29M955.5 1320.29L964.25 1318.89" stroke="#54C0FF"/>
<path d="M595 1282V1295.5M595 1282L603 1276.76M595 1282L607.5 1285.47M726.5 1365.5L607.5 1333.83M727.5 1302.5L620.5 1275.3M743.5 1369.5L746.5 1370.14M896.5 1386L840 1387L811 1384L746.5 1370.14M741 1305.5L744 1306.2M895 1325L892 1325.05M905.5 1325L911.5 1324.64M982 1329.5V1339M982 1329.5L977.125 1323M982 1329.5L971.5 1331.96M907.5 1385L954.5 1379L964.5 1375M941.5 1339L905.5 1341.5M941.5 1339V1381M941.5 1339L971.5 1331.96M941.5 1339V1322.52M896 1342.5L840 1343L825.5 1341.25L811 1339.5L746.5 1324.76M741 1323.5L746.5 1324.76M726.5 1318.5L607.5 1285.47M595 1295.5L726.5 1331.5M595 1295.5V1307.5M741 1336L811 1351.5L840 1354.5L896 1353.5M906 1353L941.5 1349.5L982 1339M982 1339V1350.5L971.5 1353.22M906 1364.5L941.5 1361L971.5 1353.22M896 1365.5L840 1366.5L811 1363L741 1347.5M726.5 1343.5L595 1307.5M595 1307.5V1319.75M595 1319.75V1330.5L607.5 1333.83M595 1319.75L726.5 1354.5M742 1358.5L811 1373L840 1376L896.5 1374.5M907.5 1374L941.5 1370.5L973 1361.5M603 1276.76L609.5 1272.5L619.5 1275.04L620.5 1275.3M603 1276.76L727.5 1310M741 1313.5L811 1330L840 1334.5L895 1334M905.5 1333L939.5 1331L977.125 1323M977.125 1323L973 1317.5L964.25 1318.89M607.5 1333.83V1285.47M607.5 1285.47L620.5 1275.3M619.5 1337.16V1288.8L632.5 1278.35M631.5 1340.49V1292.13L645 1281.53M643.637 1343.86V1295.5L657.5 1284.7M656 1347.29V1298.93L670 1287.88M668 1350.62V1302.26L682.5 1291.06M680.5 1354.09V1305.73L695 1294.24M692.5 1357.42V1309.06L707.5 1297.42M704.5 1360.75V1312.39L719.633 1300.5M716.5 1364.08V1315.72L727.5 1306.5M746.5 1324.76V1370.14M746.5 1324.76L762.364 1310.5M758 1372.77V1327.39L773 1312.99M769.438 1375.39V1330L784 1315.56M781 1378.03V1332.64L794.409 1318M792 1380.54V1335.16L804 1320.24M803 1383.06V1337.67L814 1322.35M813 1384.21V1339.74L822.188 1323.5M824 1385.53V1341.07L831.5 1324.81M835 1386.86V1342.4L841 1325.98M846 1387.41V1342.95L850.5 1325.81M857.5 1387.47V1343L860.5 1325.63M869 1387.21V1342.74L871.5 1325.43M880 1387.11V1342.64L882 1325.24M891 1387.01V1342.54L892 1325.05M909.5 1384.74V1341.22L911.5 1324.64M920.668 1340.45V1383.32M930.668 1382.62V1339.75L932 1323.39M951.5 1379.38V1336.51L948.5 1321.41M961.75 1376.1V1334.25L955.5 1320.29M971.5 1331.96V1353.22M971.5 1331.96L964.25 1318.89M971.5 1360.5V1364.5M741 1308.5L744 1306.2M744 1306.2L753.818 1308.5M741 1319.5L753.818 1308.5M753.818 1308.5L762.364 1310.5M762.364 1310.5L773 1312.99M773 1312.99L784 1315.56M784 1315.56L794.409 1318M794.409 1318L804 1320.24M804 1320.24L811.5 1322L814 1322.35M814 1322.35L822.188 1323.5M822.188 1323.5L831.5 1324.81M831.5 1324.81L840 1326L841 1325.98M841 1325.98L850.5 1325.81M850.5 1325.81L860.5 1325.63M860.5 1325.63L871.5 1325.43M871.5 1325.43L882 1325.24M882 1325.24L892 1325.05M911.5 1324.64L922.5 1323.97M920.668 1339.75L922.5 1323.97M922.5 1323.97L932 1323.39M932 1323.39L938.5 1323L941.5 1322.52M941.5 1322.52L948.5 1321.41M948.5 1321.41L955.5 1320.29M955.5 1320.29L964.25 1318.89" stroke="#F9F9F9" stroke-opacity="0.2"/>
<g filter="url(#filter5_f_30_6)">
<path d="M595 1282V1295.5M595 1282L603 1276.76M595 1282L607.5 1285.47M726.5 1365.5L607.5 1333.83M727.5 1302.5L620.5 1275.3M743.5 1369.5L746.5 1370.14M896.5 1386L840 1387L811 1384L746.5 1370.14M741 1305.5L744 1306.2M895 1325L892 1325.05M905.5 1325L911.5 1324.64M982 1329.5V1339M982 1329.5L977.125 1323M982 1329.5L971.5 1331.96M907.5 1385L954.5 1379L964.5 1375M941.5 1339L905.5 1341.5M941.5 1339V1381M941.5 1339L971.5 1331.96M941.5 1339V1322.52M896 1342.5L840 1343L825.5 1341.25L811 1339.5L746.5 1324.76M741 1323.5L746.5 1324.76M726.5 1318.5L607.5 1285.47M595 1295.5L726.5 1331.5M595 1295.5V1307.5M741 1336L811 1351.5L840 1354.5L896 1353.5M906 1353L941.5 1349.5L982 1339M982 1339V1350.5L971.5 1353.22M906 1364.5L941.5 1361L971.5 1353.22M896 1365.5L840 1366.5L811 1363L741 1347.5M726.5 1343.5L595 1307.5M595 1307.5V1319.75M595 1319.75V1330.5L607.5 1333.83M595 1319.75L726.5 1354.5M742 1358.5L811 1373L840 1376L896.5 1374.5M907.5 1374L941.5 1370.5L973 1361.5M603 1276.76L609.5 1272.5L619.5 1275.04L620.5 1275.3M603 1276.76L727.5 1310M741 1313.5L811 1330L840 1334.5L895 1334M905.5 1333L939.5 1331L977.125 1323M977.125 1323L973 1317.5L964.25 1318.89M607.5 1333.83V1285.47M607.5 1285.47L620.5 1275.3M619.5 1337.16V1288.8L632.5 1278.35M631.5 1340.49V1292.13L645 1281.53M643.637 1343.86V1295.5L657.5 1284.7M656 1347.29V1298.93L670 1287.88M668 1350.62V1302.26L682.5 1291.06M680.5 1354.09V1305.73L695 1294.24M692.5 1357.42V1309.06L707.5 1297.42M704.5 1360.75V1312.39L719.633 1300.5M716.5 1364.08V1315.72L727.5 1306.5M746.5 1324.76V1370.14M746.5 1324.76L762.364 1310.5M758 1372.77V1327.39L773 1312.99M769.438 1375.39V1330L784 1315.56M781 1378.03V1332.64L794.409 1318M792 1380.54V1335.16L804 1320.24M803 1383.06V1337.67L814 1322.35M813 1384.21V1339.74L822.188 1323.5M824 1385.53V1341.07L831.5 1324.81M835 1386.86V1342.4L841 1325.98M846 1387.41V1342.95L850.5 1325.81M857.5 1387.47V1343L860.5 1325.63M869 1387.21V1342.74L871.5 1325.43M880 1387.11V1342.64L882 1325.24M891 1387.01V1342.54L892 1325.05M909.5 1384.74V1341.22L911.5 1324.64M920.668 1340.45V1383.32M930.668 1382.62V1339.75L932 1323.39M951.5 1379.38V1336.51L948.5 1321.41M961.75 1376.1V1334.25L955.5 1320.29M971.5 1331.96V1353.22M971.5 1331.96L964.25 1318.89M971.5 1360.5V1364.5M741 1308.5L744 1306.2M744 1306.2L753.818 1308.5M741 1319.5L753.818 1308.5M753.818 1308.5L762.364 1310.5M762.364 1310.5L773 1312.99M773 1312.99L784 1315.56M784 1315.56L794.409 1318M794.409 1318L804 1320.24M804 1320.24L811.5 1322L814 1322.35M814 1322.35L822.188 1323.5M822.188 1323.5L831.5 1324.81M831.5 1324.81L840 1326L841 1325.98M841 1325.98L850.5 1325.81M850.5 1325.81L860.5 1325.63M860.5 1325.63L871.5 1325.43M871.5 1325.43L882 1325.24M882 1325.24L892 1325.05M911.5 1324.64L922.5 1323.97M920.668 1339.75L922.5 1323.97M922.5 1323.97L932 1323.39M932 1323.39L938.5 1323L941.5 1322.52M941.5 1322.52L948.5 1321.41M948.5 1321.41L955.5 1320.29M955.5 1320.29L964.25 1318.89" stroke="#66BFF2"/>
</g>
<g filter="url(#filter6_f_30_6)">
<path d="M840.5 1157V1163M840.5 1157L833.5 1151.97M840.5 1157L843.375 1155.25L844.812 1154.37M840.5 1167.5V1169M840.5 1182V1185.5M852 1150L851 1150.61M827.5 1184L825.875 1182.93M821 1143L833.5 1151.97M697.5 1012C696.628 1011.25 695.737 1010.48 694.826 1009.7M679 1023.5C676.217 1021.42 673.203 1019.11 670 1016.58M665.5 1057C664.188 1055.9 662.854 1054.78 661.5 1053.62M846.25 1153.5V1161.5M846.25 1153.5L849.5 1151.52M846.25 1153.5L844.812 1154.37M851 1150.61V1161.5M851 1150.61L849.5 1151.52M833.5 1151.97L848 1143M833.5 1151.97V1169M842.921 1136L825.875 1146.5V1161.5M833.5 1185.5V1179.5M825.875 1167.5V1161.5M825.875 1179.5V1182.93M825.875 1182.93L816 1176.41M836.317 1129.5L820.817 1138.8M829.462 1124L816 1131M812.5 1123.28L815.071 1121.96M816 1167.5V1157L795 1144M816 1174V1176.41M816 1176.41L809.25 1171.95M809.5 1143L809.25 1171.95M809.25 1171.95L802.5 1167.5V1134M795 1152.11V1144M795 1129.5V1135M849.5 1142L835.964 1129.71L822.783 1118L817.642 1120.64L815.071 1121.96M677 1035.5V1040M670 1034V1037.5M661.5 1009.7C663.205 1011.11 664.873 1012.47 666.5 1013.78C667.69 1014.74 668.857 1015.67 670 1016.58M661.5 1009.7C659.118 1007.72 656.664 1005.66 654.152 1003.5M661.5 1009.7L687.644 1003.5M661.5 1009.7V1042.5M661.5 1053.62C659.111 1051.58 656.658 1049.46 654.152 1047.26M661.5 1053.62V1042.5M654.152 1003.5V1047.26M654.152 1003.5C651.815 1001.49 649.428 999.41 647 997.253M654.152 1003.5L680.465 997.253M654.152 1047.26C651.811 1045.2 649.425 1043.06 647 1040.86M647 997.253V1040.86M647 997.253C644.374 994.919 641.701 992.5 638.994 990M647 997.253L672.773 990.456M647 1040.86C644.372 1038.48 641.7 1036.01 638.994 1033.46M638.994 990V1033.46M638.994 990C636.709 987.89 634.399 985.722 632.073 983.5M638.994 990L665.057 983.5M638.994 1033.46C636.709 1031.31 634.4 1029.1 632.073 1026.84M632.073 983.5C630.023 981.541 627.96 979.54 625.89 977.5C625.553 977.168 625.215 976.834 624.878 976.5M632.073 983.5L658.548 977.5M632.073 983.5V1005.17V1026.84M632.073 1026.84C629.691 1024.53 627.29 1022.15 624.878 1019.73M624.878 976.5V1019.73M624.878 976.5C622.733 974.375 620.582 972.207 618.429 970M624.878 976.5L652 971.323M624.878 1019.73C622.736 1017.57 620.585 1015.38 618.429 1013.14M618.429 970V1013.14M618.429 970C616.195 967.708 613.96 965.374 611.731 963M618.429 970L645.5 965.032M618.429 1013.14C616.199 1010.82 613.965 1008.46 611.731 1006.06M611.731 963V1006.06M611.731 963C609.479 960.601 607.233 958.161 605 955.684M611.731 963L638.994 958.554M611.731 1006.06C609.484 1003.64 607.239 1001.18 605 998.678M605 955.684V998.678M605 955.684C602.581 952.999 600.177 950.27 597.797 947.5M605 955.684L632.073 951.439M605 998.678C602.589 995.985 600.186 993.243 597.797 990.456M597.797 947.5V990.456M597.797 947.5C595.677 945.032 593.576 942.531 591.5 940M597.797 947.5L624.878 943.757M597.797 990.456C595.685 987.993 593.585 985.493 591.5 982.959M591.5 940C590.955 939.335 590.412 938.669 589.87 938C588.399 936.183 586.941 934.351 585.5 932.505M591.5 940L618.429 936.588M591.5 940V982.959M591.5 982.959C590.956 982.298 590.412 981.634 589.87 980.967C588.404 979.166 586.947 977.347 585.5 975.512M585.5 932.505C584.85 931.673 584.204 930.838 583.561 930C582.923 929.169 582.289 928.336 581.659 927.5C579.389 924.49 577.166 921.447 575 918.373C572.588 914.951 570.247 911.491 567.988 908C565.738 904.522 563.571 901.012 561.5 897.476C559.275 893.679 557.161 889.851 555.174 886M585.5 932.505L612.429 929.093M585.5 932.505V975.512M585.5 975.512C584.211 973.878 582.93 972.23 581.659 970.57C581.283 970.08 580.908 969.588 580.533 969.095M555.174 886C554.401 884.503 555.127 885.594 554.393 884.091C552.244 879.685 550.201 875.135 548.315 870.5C547.91 869.504 547.512 868.504 547.121 867.5C546.148 864.998 545.296 862.719 544.499 860.424C543.728 858.203 543.227 856.467 542.5 854M555.174 886V931.374M542.5 854C542.095 852.627 541.209 849.808 540.843 848.435C540.493 847.122 540.161 845.81 539.849 844.5C539.37 842.494 538.937 840.493 538.553 838.5C538.456 837.995 538.362 837.491 538.271 836.988M542.5 854L564.758 853.5M542.5 854V906.694M537.103 829C537.176 829.665 537.256 830.332 537.342 831C537.598 832.983 537.909 834.98 538.271 836.988M557.384 830.986C557.856 833.094 558.399 835.277 559 837.486M564.758 853.5C567.05 859.552 569.917 865.593 572.863 871.5M564.758 853.5C562.849 848.46 560.467 842.885 559 837.486M572.863 871.5C575.147 876.08 577.109 879.613 579.726 884.091M572.863 871.5L549.351 873V920.707M579.726 884.091C581.973 887.935 584.334 891.74 586.791 895.5C589.186 899.164 591.672 902.787 594.236 906.363C596.651 909.731 599.133 913.059 601.672 916.343M579.726 884.091L554.821 886.091M601.672 916.343C603.908 919.235 606.187 922.094 608.5 924.916C611.159 928.16 613.864 931.356 616.601 934.5C617.209 935.199 617.818 935.895 618.429 936.588M601.672 916.343L575.5 919.081V962.326M624.878 943.757C627.265 946.358 629.666 948.92 632.073 951.439M624.878 943.757C622.715 941.4 620.563 939.01 618.429 936.588M632.073 951.439C634.377 953.85 636.687 956.222 638.994 958.554M638.994 958.554C641.166 960.75 643.337 962.91 645.5 965.032M645.5 965.032C647.677 967.168 649.845 969.265 652 971.323M652 971.323C654.2 973.424 656.384 975.483 658.548 977.5M658.548 977.5C660.742 979.545 662.914 981.545 665.057 983.5M665.057 983.5C667.676 985.888 670.252 988.208 672.773 990.456M672.773 990.456C675.402 992.801 677.971 995.068 680.465 997.253M680.465 997.253C682.936 999.417 685.333 1001.5 687.644 1003.5M687.644 1003.5C690.145 1005.66 692.545 1007.73 694.826 1009.7M670 1016.58L694.826 1009.7M670 1016.58V1026.84C627.923 991.394 542.092 904.1 535.385 838.5M692.536 1016.58C595.7 941.602 556.791 862.643 550.13 832.621M683.5 1019.73C644.467 990.593 556.688 902.453 542.424 832.436M607.463 922.588L580.533 926V969.095M596.881 910L570.956 912.5L570.766 955.684M591.858 903L566.448 905.594V949.36M587.909 896.575L562.5 899.169V943.323M583.287 890L558.382 892V936.785M576.009 877.5L552 879.026V925.682M569.978 865.5L546.466 867V915.027M567.296 859.5L544.499 860.36M563.074 847.5H540.597V902.439M539.387 842.5H561.018M559 837.486L538.271 836.988M538.271 836.988L537.671 895.5M558.382 832.819L550.13 832.621M537.076 832.307L542.424 832.436M580.533 969.095C578.837 966.861 577.159 964.604 575.5 962.326M575.5 962.326C575.333 962.097 575.166 961.868 575 961.638C573.573 959.669 572.161 957.684 570.766 955.684M570.766 955.684C569.832 954.345 568.906 953 567.988 951.647C567.472 950.887 566.959 950.125 566.448 949.36M566.448 949.36C565.113 947.362 563.797 945.349 562.5 943.323M562.5 943.323C562.165 942.8 561.832 942.276 561.5 941.751C560.254 939.782 559.286 938.252 558.382 936.785M558.382 936.785C557.338 935.093 556.379 933.483 555.174 931.374M555.174 931.374C554.925 930.939 554.666 930.483 554.393 930C553.588 928.573 552.79 927.133 552 925.682M552 925.682C551.106 924.038 550.222 922.379 549.351 920.707M549.351 920.707C548.598 919.262 547.855 917.807 547.121 916.343C546.902 915.905 546.683 915.466 546.466 915.027M546.466 915.027C545.802 913.685 545.146 912.335 544.499 910.978C543.823 909.557 543.156 908.129 542.5 906.694M542.5 906.694C542.333 906.328 542.166 905.961 542 905.594C541.61 904.732 541.225 903.867 540.843 903C540.761 902.813 540.679 902.626 540.597 902.439M540.597 902.439C540.346 901.865 540.096 901.29 539.849 900.714C539.694 900.353 539.54 899.993 539.387 899.632C538.804 898.259 538.232 896.882 537.671 895.5M537.671 895.5C537.345 894.695 537.022 893.888 536.703 893.08C536.562 892.72 536.42 892.36 536.28 892C536.021 891.334 535.765 890.668 535.511 890C533.535 884.297 531.34 872.979 529.5 861.004M527 842.5C527.684 848.381 528.544 854.781 529.5 861.004M535.511 829L535.385 838.5M534.716 888.693L535.385 838.5M532.452 831.5L531.515 873M550.13 832.621L542.424 832.436M542.424 832.436L542 830.5M668 1037.5C626.177 1002.67 541.06 914.1 532.248 840.5M661.5 1042.5C621.667 1009 539.5 922.5 529.5 844.5M529.5 861.004V838.5M798.5 1157L814.5 1167.5M795 1144V1135M825.875 1161.5L835 1166.5M795 1135L812 1146M824.5 1153L838.5 1161.5M815.071 1121.96L849.5 1151.52M844.812 1154.37L820.817 1136" stroke="#66BFF2"/>
</g>
<path d="M840.5 1157V1163M840.5 1157L833.5 1151.97M840.5 1157L843.375 1155.25L844.812 1154.37M840.5 1167.5V1169M840.5 1182V1185.5M852 1150L851 1150.61M827.5 1184L825.875 1182.93M821 1143L833.5 1151.97M697.5 1012C696.628 1011.25 695.737 1010.48 694.826 1009.7M679 1023.5C676.217 1021.42 673.203 1019.11 670 1016.58M665.5 1057C664.188 1055.9 662.854 1054.78 661.5 1053.62M846.25 1153.5V1161.5M846.25 1153.5L849.5 1151.52M846.25 1153.5L844.812 1154.37M851 1150.61V1161.5M851 1150.61L849.5 1151.52M833.5 1151.97L848 1143M833.5 1151.97V1169M842.921 1136L825.875 1146.5V1161.5M833.5 1185.5V1179.5M825.875 1167.5V1161.5M825.875 1179.5V1182.93M825.875 1182.93L816 1176.41M836.317 1129.5L820.817 1138.8M829.462 1124L816 1131M812.5 1123.28L815.071 1121.96M816 1167.5V1157L795 1144M816 1174V1176.41M816 1176.41L809.25 1171.95M809.5 1143L809.25 1171.95M809.25 1171.95L802.5 1167.5V1134M795 1152.11V1144M795 1129.5V1135M849.5 1142L835.964 1129.71L822.783 1118L817.642 1120.64L815.071 1121.96M677 1035.5V1040M670 1034V1037.5M661.5 1009.7C663.205 1011.11 664.873 1012.47 666.5 1013.78C667.69 1014.74 668.857 1015.67 670 1016.58M661.5 1009.7C659.118 1007.72 656.664 1005.66 654.152 1003.5M661.5 1009.7L687.644 1003.5M661.5 1009.7V1042.5M661.5 1053.62C659.111 1051.58 656.658 1049.46 654.152 1047.26M661.5 1053.62V1042.5M654.152 1003.5V1047.26M654.152 1003.5C651.815 1001.49 649.428 999.41 647 997.253M654.152 1003.5L680.465 997.253M654.152 1047.26C651.811 1045.2 649.425 1043.06 647 1040.86M647 997.253V1040.86M647 997.253C644.374 994.919 641.701 992.5 638.994 990M647 997.253L672.773 990.456M647 1040.86C644.372 1038.48 641.7 1036.01 638.994 1033.46M638.994 990V1033.46M638.994 990C636.709 987.89 634.399 985.722 632.073 983.5M638.994 990L665.057 983.5M638.994 1033.46C636.709 1031.31 634.4 1029.1 632.073 1026.84M632.073 983.5C630.023 981.541 627.96 979.54 625.89 977.5C625.553 977.168 625.215 976.834 624.878 976.5M632.073 983.5L658.548 977.5M632.073 983.5V1005.17V1026.84M632.073 1026.84C629.691 1024.53 627.29 1022.15 624.878 1019.73M624.878 976.5V1019.73M624.878 976.5C622.733 974.375 620.582 972.207 618.429 970M624.878 976.5L652 971.323M624.878 1019.73C622.736 1017.57 620.585 1015.38 618.429 1013.14M618.429 970V1013.14M618.429 970C616.195 967.708 613.96 965.374 611.731 963M618.429 970L645.5 965.032M618.429 1013.14C616.199 1010.82 613.965 1008.46 611.731 1006.06M611.731 963V1006.06M611.731 963C609.479 960.601 607.233 958.161 605 955.684M611.731 963L638.994 958.554M611.731 1006.06C609.484 1003.64 607.239 1001.18 605 998.678M605 955.684V998.678M605 955.684C602.581 952.999 600.177 950.27 597.797 947.5M605 955.684L632.073 951.439M605 998.678C602.589 995.985 600.186 993.243 597.797 990.456M597.797 947.5V990.456M597.797 947.5C595.677 945.032 593.576 942.531 591.5 940M597.797 947.5L624.878 943.757M597.797 990.456C595.685 987.993 593.585 985.493 591.5 982.959M591.5 940C590.955 939.335 590.412 938.669 589.87 938C588.399 936.183 586.941 934.351 585.5 932.505M591.5 940L618.429 936.588M591.5 940V982.959M591.5 982.959C590.956 982.298 590.412 981.634 589.87 980.967C588.404 979.166 586.947 977.347 585.5 975.512M585.5 932.505C584.85 931.673 584.204 930.838 583.561 930C582.923 929.169 582.289 928.336 581.659 927.5C579.389 924.49 577.166 921.447 575 918.373C572.588 914.951 570.247 911.491 567.988 908C565.738 904.522 563.571 901.012 561.5 897.476C559.275 893.679 557.161 889.851 555.174 886M585.5 932.505L612.429 929.093M585.5 932.505V975.512M585.5 975.512C584.211 973.878 582.93 972.23 581.659 970.57C581.283 970.08 580.908 969.588 580.533 969.095M555.174 886C554.401 884.503 555.127 885.594 554.393 884.091C552.244 879.685 550.201 875.135 548.315 870.5C547.91 869.504 547.512 868.504 547.121 867.5C546.148 864.998 545.296 862.719 544.499 860.424C543.728 858.203 543.227 856.467 542.5 854M555.174 886V931.374M542.5 854C542.095 852.627 541.209 849.808 540.843 848.435C540.493 847.122 540.161 845.81 539.849 844.5C539.37 842.494 538.937 840.493 538.553 838.5C538.456 837.995 538.362 837.491 538.271 836.988M542.5 854L564.758 853.5M542.5 854V906.694M537.103 829C537.176 829.665 537.256 830.332 537.342 831C537.598 832.983 537.909 834.98 538.271 836.988M557.384 830.986C557.856 833.094 558.399 835.277 559 837.486M564.758 853.5C567.05 859.552 569.917 865.593 572.863 871.5M564.758 853.5C562.849 848.46 560.467 842.885 559 837.486M572.863 871.5C575.147 876.08 577.109 879.613 579.726 884.091M572.863 871.5L549.351 873V920.707M579.726 884.091C581.973 887.935 584.334 891.74 586.791 895.5C589.186 899.164 591.672 902.787 594.236 906.363C596.651 909.731 599.133 913.059 601.672 916.343M579.726 884.091L554.821 886.091M601.672 916.343C603.908 919.235 606.187 922.094 608.5 924.916C611.159 928.16 613.864 931.356 616.601 934.5C617.209 935.199 617.818 935.895 618.429 936.588M601.672 916.343L575.5 919.081V962.326M624.878 943.757C627.265 946.358 629.666 948.92 632.073 951.439M624.878 943.757C622.715 941.4 620.563 939.01 618.429 936.588M632.073 951.439C634.377 953.85 636.687 956.222 638.994 958.554M638.994 958.554C641.166 960.75 643.337 962.91 645.5 965.032M645.5 965.032C647.677 967.168 649.845 969.265 652 971.323M652 971.323C654.2 973.424 656.384 975.483 658.548 977.5M658.548 977.5C660.742 979.545 662.914 981.545 665.057 983.5M665.057 983.5C667.676 985.888 670.252 988.208 672.773 990.456M672.773 990.456C675.402 992.801 677.971 995.068 680.465 997.253M680.465 997.253C682.936 999.417 685.333 1001.5 687.644 1003.5M687.644 1003.5C690.145 1005.66 692.545 1007.73 694.826 1009.7M670 1016.58L694.826 1009.7M670 1016.58V1026.84C627.923 991.394 542.092 904.1 535.385 838.5M692.536 1016.58C595.7 941.602 556.791 862.643 550.13 832.621M683.5 1019.73C644.467 990.593 556.688 902.453 542.424 832.436M607.463 922.588L580.533 926V969.095M596.881 910L570.956 912.5L570.766 955.684M591.858 903L566.448 905.594V949.36M587.909 896.575L562.5 899.169V943.323M583.287 890L558.382 892V936.785M576.009 877.5L552 879.026V925.682M569.978 865.5L546.466 867V915.027M567.296 859.5L544.499 860.36M563.074 847.5H540.597V902.439M539.387 842.5H561.018M559 837.486L538.271 836.988M538.271 836.988L537.671 895.5M558.382 832.819L550.13 832.621M537.076 832.307L542.424 832.436M580.533 969.095C578.837 966.861 577.159 964.604 575.5 962.326M575.5 962.326C575.333 962.097 575.166 961.868 575 961.638C573.573 959.669 572.161 957.684 570.766 955.684M570.766 955.684C569.832 954.345 568.906 953 567.988 951.647C567.472 950.887 566.959 950.125 566.448 949.36M566.448 949.36C565.113 947.362 563.797 945.349 562.5 943.323M562.5 943.323C562.165 942.8 561.832 942.276 561.5 941.751C560.254 939.782 559.286 938.252 558.382 936.785M558.382 936.785C557.338 935.093 556.379 933.483 555.174 931.374M555.174 931.374C554.925 930.939 554.666 930.483 554.393 930C553.588 928.573 552.79 927.133 552 925.682M552 925.682C551.106 924.038 550.222 922.379 549.351 920.707M549.351 920.707C548.598 919.262 547.855 917.807 547.121 916.343C546.902 915.905 546.683 915.466 546.466 915.027M546.466 915.027C545.802 913.685 545.146 912.335 544.499 910.978C543.823 909.557 543.156 908.129 542.5 906.694M542.5 906.694C542.333 906.328 542.166 905.961 542 905.594C541.61 904.732 541.225 903.867 540.843 903C540.761 902.813 540.679 902.626 540.597 902.439M540.597 902.439C540.346 901.865 540.096 901.29 539.849 900.714C539.694 900.353 539.54 899.993 539.387 899.632C538.804 898.259 538.232 896.882 537.671 895.5M537.671 895.5C537.345 894.695 537.022 893.888 536.703 893.08C536.562 892.72 536.42 892.36 536.28 892C536.021 891.334 535.765 890.668 535.511 890C533.535 884.297 531.34 872.979 529.5 861.004M527 842.5C527.684 848.381 528.544 854.781 529.5 861.004M535.511 829L535.385 838.5M534.716 888.693L535.385 838.5M532.452 831.5L531.515 873M550.13 832.621L542.424 832.436M542.424 832.436L542 830.5M668 1037.5C626.177 1002.67 541.06 914.1 532.248 840.5M661.5 1042.5C621.667 1009 539.5 922.5 529.5 844.5M529.5 861.004V838.5M798.5 1157L814.5 1167.5M795 1144V1135M825.875 1161.5L835 1166.5M795 1135L812 1146M824.5 1153L838.5 1161.5M815.071 1121.96L849.5 1151.52M844.812 1154.37L820.817 1136" stroke="#54C0FF"/>
<path d="M840.5 1157V1163M840.5 1157L833.5 1151.97M840.5 1157L843.375 1155.25L844.812 1154.37M840.5 1167.5V1169M840.5 1182V1185.5M852 1150L851 1150.61M827.5 1184L825.875 1182.93M821 1143L833.5 1151.97M697.5 1012C696.628 1011.25 695.737 1010.48 694.826 1009.7M679 1023.5C676.217 1021.42 673.203 1019.11 670 1016.58M665.5 1057C664.188 1055.9 662.854 1054.78 661.5 1053.62M846.25 1153.5V1161.5M846.25 1153.5L849.5 1151.52M846.25 1153.5L844.812 1154.37M851 1150.61V1161.5M851 1150.61L849.5 1151.52M833.5 1151.97L848 1143M833.5 1151.97V1169M842.921 1136L825.875 1146.5V1161.5M833.5 1185.5V1179.5M825.875 1167.5V1161.5M825.875 1179.5V1182.93M825.875 1182.93L816 1176.41M836.317 1129.5L820.817 1138.8M829.462 1124L816 1131M812.5 1123.28L815.071 1121.96M816 1167.5V1157L795 1144M816 1174V1176.41M816 1176.41L809.25 1171.95M809.5 1143L809.25 1171.95M809.25 1171.95L802.5 1167.5V1134M795 1152.11V1144M795 1129.5V1135M849.5 1142L835.964 1129.71L822.783 1118L817.642 1120.64L815.071 1121.96M677 1035.5V1040M670 1034V1037.5M661.5 1009.7C663.205 1011.11 664.873 1012.47 666.5 1013.78C667.69 1014.74 668.857 1015.67 670 1016.58M661.5 1009.7C659.118 1007.72 656.664 1005.66 654.152 1003.5M661.5 1009.7L687.644 1003.5M661.5 1009.7V1042.5M661.5 1053.62C659.111 1051.58 656.658 1049.46 654.152 1047.26M661.5 1053.62V1042.5M654.152 1003.5V1047.26M654.152 1003.5C651.815 1001.49 649.428 999.41 647 997.253M654.152 1003.5L680.465 997.253M654.152 1047.26C651.811 1045.2 649.425 1043.06 647 1040.86M647 997.253V1040.86M647 997.253C644.374 994.919 641.701 992.5 638.994 990M647 997.253L672.773 990.456M647 1040.86C644.372 1038.48 641.7 1036.01 638.994 1033.46M638.994 990V1033.46M638.994 990C636.709 987.89 634.399 985.722 632.073 983.5M638.994 990L665.057 983.5M638.994 1033.46C636.709 1031.31 634.4 1029.1 632.073 1026.84M632.073 983.5C630.023 981.541 627.96 979.54 625.89 977.5C625.553 977.168 625.215 976.834 624.878 976.5M632.073 983.5L658.548 977.5M632.073 983.5V1005.17V1026.84M632.073 1026.84C629.691 1024.53 627.29 1022.15 624.878 1019.73M624.878 976.5V1019.73M624.878 976.5C622.733 974.375 620.582 972.207 618.429 970M624.878 976.5L652 971.323M624.878 1019.73C622.736 1017.57 620.585 1015.38 618.429 1013.14M618.429 970V1013.14M618.429 970C616.195 967.708 613.96 965.374 611.731 963M618.429 970L645.5 965.032M618.429 1013.14C616.199 1010.82 613.965 1008.46 611.731 1006.06M611.731 963V1006.06M611.731 963C609.479 960.601 607.233 958.161 605 955.684M611.731 963L638.994 958.554M611.731 1006.06C609.484 1003.64 607.239 1001.18 605 998.678M605 955.684V998.678M605 955.684C602.581 952.999 600.177 950.27 597.797 947.5M605 955.684L632.073 951.439M605 998.678C602.589 995.985 600.186 993.243 597.797 990.456M597.797 947.5V990.456M597.797 947.5C595.677 945.032 593.576 942.531 591.5 940M597.797 947.5L624.878 943.757M597.797 990.456C595.685 987.993 593.585 985.493 591.5 982.959M591.5 940C590.955 939.335 590.412 938.669 589.87 938C588.399 936.183 586.941 934.351 585.5 932.505M591.5 940L618.429 936.588M591.5 940V982.959M591.5 982.959C590.956 982.298 590.412 981.634 589.87 980.967C588.404 979.166 586.947 977.347 585.5 975.512M585.5 932.505C584.85 931.673 584.204 930.838 583.561 930C582.923 929.169 582.289 928.336 581.659 927.5C579.389 924.49 577.166 921.447 575 918.373C572.588 914.951 570.247 911.491 567.988 908C565.738 904.522 563.571 901.012 561.5 897.476C559.275 893.679 557.161 889.851 555.174 886M585.5 932.505L612.429 929.093M585.5 932.505V975.512M585.5 975.512C584.211 973.878 582.93 972.23 581.659 970.57C581.283 970.08 580.908 969.588 580.533 969.095M555.174 886C554.401 884.503 555.127 885.594 554.393 884.091C552.244 879.685 550.201 875.135 548.315 870.5C547.91 869.504 547.512 868.504 547.121 867.5C546.148 864.998 545.296 862.719 544.499 860.424C543.728 858.203 543.227 856.467 542.5 854M555.174 886V931.374M542.5 854C542.095 852.627 541.209 849.808 540.843 848.435C540.493 847.122 540.161 845.81 539.849 844.5C539.37 842.494 538.937 840.493 538.553 838.5C538.456 837.995 538.362 837.491 538.271 836.988M542.5 854L564.758 853.5M542.5 854V906.694M537.103 829C537.176 829.665 537.256 830.332 537.342 831C537.598 832.983 537.909 834.98 538.271 836.988M557.384 830.986C557.856 833.094 558.399 835.277 559 837.486M564.758 853.5C567.05 859.552 569.917 865.593 572.863 871.5M564.758 853.5C562.849 848.46 560.467 842.885 559 837.486M572.863 871.5C575.147 876.08 577.109 879.613 579.726 884.091M572.863 871.5L549.351 873V920.707M579.726 884.091C581.973 887.935 584.334 891.74 586.791 895.5C589.186 899.164 591.672 902.787 594.236 906.363C596.651 909.731 599.133 913.059 601.672 916.343M579.726 884.091L554.821 886.091M601.672 916.343C603.908 919.235 606.187 922.094 608.5 924.916C611.159 928.16 613.864 931.356 616.601 934.5C617.209 935.199 617.818 935.895 618.429 936.588M601.672 916.343L575.5 919.081V962.326M624.878 943.757C627.265 946.358 629.666 948.92 632.073 951.439M624.878 943.757C622.715 941.4 620.563 939.01 618.429 936.588M632.073 951.439C634.377 953.85 636.687 956.222 638.994 958.554M638.994 958.554C641.166 960.75 643.337 962.91 645.5 965.032M645.5 965.032C647.677 967.168 649.845 969.265 652 971.323M652 971.323C654.2 973.424 656.384 975.483 658.548 977.5M658.548 977.5C660.742 979.545 662.914 981.545 665.057 983.5M665.057 983.5C667.676 985.888 670.252 988.208 672.773 990.456M672.773 990.456C675.402 992.801 677.971 995.068 680.465 997.253M680.465 997.253C682.936 999.417 685.333 1001.5 687.644 1003.5M687.644 1003.5C690.145 1005.66 692.545 1007.73 694.826 1009.7M670 1016.58L694.826 1009.7M670 1016.58V1026.84C627.923 991.394 542.092 904.1 535.385 838.5M692.536 1016.58C595.7 941.602 556.791 862.643 550.13 832.621M683.5 1019.73C644.467 990.593 556.688 902.453 542.424 832.436M607.463 922.588L580.533 926V969.095M596.881 910L570.956 912.5L570.766 955.684M591.858 903L566.448 905.594V949.36M587.909 896.575L562.5 899.169V943.323M583.287 890L558.382 892V936.785M576.009 877.5L552 879.026V925.682M569.978 865.5L546.466 867V915.027M567.296 859.5L544.499 860.36M563.074 847.5H540.597V902.439M539.387 842.5H561.018M559 837.486L538.271 836.988M538.271 836.988L537.671 895.5M558.382 832.819L550.13 832.621M537.076 832.307L542.424 832.436M580.533 969.095C578.837 966.861 577.159 964.604 575.5 962.326M575.5 962.326C575.333 962.097 575.166 961.868 575 961.638C573.573 959.669 572.161 957.684 570.766 955.684M570.766 955.684C569.832 954.345 568.906 953 567.988 951.647C567.472 950.887 566.959 950.125 566.448 949.36M566.448 949.36C565.113 947.362 563.797 945.349 562.5 943.323M562.5 943.323C562.165 942.8 561.832 942.276 561.5 941.751C560.254 939.782 559.286 938.252 558.382 936.785M558.382 936.785C557.338 935.093 556.379 933.483 555.174 931.374M555.174 931.374C554.925 930.939 554.666 930.483 554.393 930C553.588 928.573 552.79 927.133 552 925.682M552 925.682C551.106 924.038 550.222 922.379 549.351 920.707M549.351 920.707C548.598 919.262 547.855 917.807 547.121 916.343C546.902 915.905 546.683 915.466 546.466 915.027M546.466 915.027C545.802 913.685 545.146 912.335 544.499 910.978C543.823 909.557 543.156 908.129 542.5 906.694M542.5 906.694C542.333 906.328 542.166 905.961 542 905.594C541.61 904.732 541.225 903.867 540.843 903C540.761 902.813 540.679 902.626 540.597 902.439M540.597 902.439C540.346 901.865 540.096 901.29 539.849 900.714C539.694 900.353 539.54 899.993 539.387 899.632C538.804 898.259 538.232 896.882 537.671 895.5M537.671 895.5C537.345 894.695 537.022 893.888 536.703 893.08C536.562 892.72 536.42 892.36 536.28 892C536.021 891.334 535.765 890.668 535.511 890C533.535 884.297 531.34 872.979 529.5 861.004M527 842.5C527.684 848.381 528.544 854.781 529.5 861.004M535.511 829L535.385 838.5M534.716 888.693L535.385 838.5M532.452 831.5L531.515 873M550.13 832.621L542.424 832.436M542.424 832.436L542 830.5M668 1037.5C626.177 1002.67 541.06 914.1 532.248 840.5M661.5 1042.5C621.667 1009 539.5 922.5 529.5 844.5M529.5 861.004V838.5M798.5 1157L814.5 1167.5M795 1144V1135M825.875 1161.5L835 1166.5M795 1135L812 1146M824.5 1153L838.5 1161.5M815.071 1121.96L849.5 1151.52M844.812 1154.37L820.817 1136" stroke="#F9F9F9" stroke-opacity="0.2"/>
<path d="M1134 1011.5L1141.6 1016.4M1134 1011.5V1021.5M1134 1011.5L1140 1007.93M1163 1076L1141.6 1061.61M1267.5 1140L1207 1101.5V1058.04L1225.4 1046.91M1310.5 1166.5L1293 1155V1112.81L1311.4 1101.67M1314.5 1126.5L1308.98 1122.98M1317 1105L1160 1005.26M1141.6 1061.61L1134 1056.5V1050.28M1141.6 1061.61V1016.4M1141.6 1016.4L1160 1005.26M1141.6 1016.4L1308.98 1122.98M1149.61 1066.71V1021.5L1168.01 1010.36M1157.46 1071.71V1026.5L1175.86 1015.36M1165.5 1075.12V1031.62L1183.9 1020.48M1182 1079.5V1042.13L1200.4 1030.99M1190.5 1084.91V1047.54L1208.9 1036.4M1199 1090.33V1052.95L1217.4 1041.81M1215.22 1106.73V1063.27L1233.61 1052.14M1224.5 1112.64V1069.18L1242.9 1058.04M1232.93 1118V1074.54L1251.32 1063.41M1241.57 1123.5V1080.04L1259.97 1068.91M1249.19 1128.37V1084.91L1267.59 1073.78M1257.69 1133.78V1090.33L1276.09 1079.19M1266.6 1139.46V1096L1285 1084.86M1275.24 1112.64V1111M1284.5 1115V1107.4L1302.9 1096.26M1301.15 1160.19V1118L1314.5 1109M1308.98 1165.5V1123.31M1160 1005.26L1152.5 1000.5L1146.25 1004.22M1192.6 1026.02L1174.2 1037.16V1075.25L1134 1050.28M1293.64 1090.36L1275.24 1101.5V1111M1308.98 1122.98L1314.5 1119L1140 1007.93M1134 1021.5L1275.24 1111M1134 1021.5V1031.62M1285 1117L1314.5 1135.5M1134 1031.62L1270.5 1118M1134 1031.62V1041.81M1287 1128.37L1313 1144.5M1134 1041.81V1044.06V1050.28M1134 1041.81L1269 1126M1290 1139.46L1311.4 1153M1203 1093.5L1269 1133.78M1291.5 1148L1310.5 1160.19M1140 1007.93L1146.25 1004.22M1146.25 1004.22L1314.5 1111" stroke="#54C0FF"/>
<path d="M1134 1011.5L1141.6 1016.4M1134 1011.5V1021.5M1134 1011.5L1140 1007.93M1163 1076L1141.6 1061.61M1267.5 1140L1207 1101.5V1058.04L1225.4 1046.91M1310.5 1166.5L1293 1155V1112.81L1311.4 1101.67M1314.5 1126.5L1308.98 1122.98M1317 1105L1160 1005.26M1141.6 1061.61L1134 1056.5V1050.28M1141.6 1061.61V1016.4M1141.6 1016.4L1160 1005.26M1141.6 1016.4L1308.98 1122.98M1149.61 1066.71V1021.5L1168.01 1010.36M1157.46 1071.71V1026.5L1175.86 1015.36M1165.5 1075.12V1031.62L1183.9 1020.48M1182 1079.5V1042.13L1200.4 1030.99M1190.5 1084.91V1047.54L1208.9 1036.4M1199 1090.33V1052.95L1217.4 1041.81M1215.22 1106.73V1063.27L1233.61 1052.14M1224.5 1112.64V1069.18L1242.9 1058.04M1232.93 1118V1074.54L1251.32 1063.41M1241.57 1123.5V1080.04L1259.97 1068.91M1249.19 1128.37V1084.91L1267.59 1073.78M1257.69 1133.78V1090.33L1276.09 1079.19M1266.6 1139.46V1096L1285 1084.86M1275.24 1112.64V1111M1284.5 1115V1107.4L1302.9 1096.26M1301.15 1160.19V1118L1314.5 1109M1308.98 1165.5V1123.31M1160 1005.26L1152.5 1000.5L1146.25 1004.22M1192.6 1026.02L1174.2 1037.16V1075.25L1134 1050.28M1293.64 1090.36L1275.24 1101.5V1111M1308.98 1122.98L1314.5 1119L1140 1007.93M1134 1021.5L1275.24 1111M1134 1021.5V1031.62M1285 1117L1314.5 1135.5M1134 1031.62L1270.5 1118M1134 1031.62V1041.81M1287 1128.37L1313 1144.5M1134 1041.81V1044.06V1050.28M1134 1041.81L1269 1126M1290 1139.46L1311.4 1153M1203 1093.5L1269 1133.78M1291.5 1148L1310.5 1160.19M1140 1007.93L1146.25 1004.22M1146.25 1004.22L1314.5 1111" stroke="#F9F9F9" stroke-opacity="0.2"/>
<g filter="url(#filter7_f_30_6)">
<path d="M1308.48 1159.49V1164.57L1301.65 1160.09V1155.11L1308.48 1159.49ZM1300.65 1154.46V1159.43L1293.5 1154.73V1149.88L1300.65 1154.46ZM1308.48 1151.75V1158.3L1301.65 1153.92V1147.42L1308.48 1151.75ZM1300.65 1146.79V1153.28L1293.5 1148.69V1142.26L1300.65 1146.79ZM1308.48 1142.28V1150.56L1301.65 1146.24V1138.05L1308.48 1142.28ZM1300.65 1137.43V1145.61L1293.5 1141.08V1132.99L1300.65 1137.43ZM1308.48 1132.31V1141.11L1301.65 1136.87V1128.03L1308.48 1132.31ZM1266.1 1132.6V1138.52L1258.19 1133.48V1127.77L1266.1 1132.6ZM1300.65 1127.41V1136.25L1293.5 1131.81V1122.92L1300.65 1127.41ZM1257.19 1127.16V1132.85L1249.69 1128.07V1122.58L1257.19 1127.16ZM1266.1 1124.78V1131.43L1258.19 1126.6V1119.85L1266.1 1124.78ZM1248.69 1121.97V1127.44L1242.07 1123.22V1117.93L1248.69 1121.97ZM1300.65 1118.27V1126.22L1293.5 1121.74V1113.72L1300.65 1118.27ZM1257.19 1119.23V1125.99L1249.69 1121.41V1114.55L1257.19 1119.23ZM1266.1 1115.81V1123.6L1258.19 1118.67V1110.8L1266.1 1115.81ZM1241.07 1117.32V1122.59L1233.43 1117.72V1112.66L1241.07 1117.32ZM1313.61 1119.03L1308.96 1122.38L1302.06 1117.99L1306.88 1114.74L1313.61 1119.03ZM1248.69 1113.92V1120.8L1242.07 1116.76V1109.8L1248.69 1113.92ZM1257.19 1110.17V1118.05L1249.69 1113.37V1105.42L1257.19 1110.17ZM1305.96 1114.16L1301.14 1117.4L1293.95 1112.82L1299.03 1109.74L1305.96 1114.16ZM1232.43 1112.05V1117.09L1225 1112.36V1107.51L1232.43 1112.05ZM1241.07 1109.17V1116.15L1233.43 1111.48V1104.41L1241.07 1109.17ZM1266.1 1105.8V1114.62L1258.19 1109.62V1100.79L1266.1 1105.8ZM1312.06 1110.04L1306.86 1113.55L1299.98 1109.17L1305.46 1105.85L1312.06 1110.04ZM1248.69 1104.79V1112.75L1242.07 1108.62V1100.6L1248.69 1104.79ZM1298.08 1109.14L1293.01 1112.22L1285.45 1107.41L1290.53 1104.33L1298.08 1109.14ZM1224 1106.9V1111.73L1215.72 1106.45V1101.85L1224 1106.9ZM1232.43 1103.78V1110.87L1225 1106.34V1099.15L1232.43 1103.78ZM1274.74 1101.77V1110.09L1267.1 1105.25V1096.91L1274.74 1101.77ZM1257.19 1100.16V1108.99L1249.69 1104.24V1095.4L1257.19 1100.16ZM1304.51 1105.25L1299.04 1108.57L1291.48 1103.75L1296.94 1100.45L1304.51 1105.25ZM1241.07 1099.97V1107.99L1233.43 1103.23V1095.13L1241.07 1099.97ZM1289.58 1103.73L1284.51 1106.81L1276.19 1101.51L1281.26 1098.44L1289.58 1103.73ZM1214.72 1101.24V1105.82L1207.5 1101.22V1096.83L1214.72 1101.24ZM1224 1098.53V1105.73L1215.72 1100.68V1093.36L1224 1098.53ZM1266.1 1096.27V1104.62L1258.19 1099.6V1091.24L1266.1 1096.27ZM1248.69 1094.77V1103.61L1242.07 1099.42V1090.57L1248.69 1094.77ZM1296 1099.85L1290.54 1103.16L1282.22 1097.86L1287.67 1094.56L1296 1099.85ZM1232.43 1094.5V1102.6L1225 1097.97V1089.8L1232.43 1094.5ZM1280.32 1097.84L1275.25 1100.91L1267.55 1096.01L1272.62 1092.94L1280.32 1097.84ZM1214.72 1092.74V1100.07L1207.5 1095.66V1088.24L1214.72 1092.74ZM1257.19 1090.6V1098.97L1249.69 1094.22V1085.82L1257.19 1090.6ZM1241.07 1089.94V1098.78L1233.43 1093.95V1085.1L1241.07 1089.94ZM1224 1089.17V1097.35L1215.72 1092.18V1083.92L1224 1089.17ZM1286.72 1093.96L1281.28 1097.26L1273.58 1092.36L1279.01 1089.07L1286.72 1093.96ZM1271.68 1092.34L1266.61 1095.41L1258.64 1090.33L1263.71 1087.27L1271.68 1092.34ZM1248.69 1085.19V1093.58L1242.07 1089.39V1080.97L1248.69 1085.19ZM1232.43 1084.46V1093.31L1225 1088.61V1079.76L1232.43 1084.46ZM1278.07 1088.47L1272.64 1091.76L1264.67 1086.69L1270.09 1083.4L1278.07 1088.47ZM1214.72 1083.29V1091.56L1207.5 1087.06V1078.72L1214.72 1083.29ZM1262.77 1086.67L1257.7 1089.74L1250.14 1084.92L1255.21 1081.85L1262.77 1086.67ZM1241.07 1080.33V1088.75L1233.43 1083.91V1075.47L1241.07 1080.33ZM1224 1079.12V1087.98L1215.72 1082.74V1073.87L1224 1079.12ZM1206.5 1078.09V1086.43L1199.5 1082.07V1073.66L1206.5 1078.09ZM1269.14 1082.81L1263.72 1086.09L1256.16 1081.28L1261.57 1078L1269.14 1082.81ZM1254.27 1081.25L1249.2 1084.32L1242.51 1080.06L1247.57 1076.99L1254.27 1081.25ZM1232.43 1074.83V1083.28L1225 1078.57V1070.1L1232.43 1074.83ZM1214.72 1073.24V1082.11L1207.5 1077.54V1068.67L1214.72 1073.24ZM1198.5 1073.03V1081.45L1191 1076.77V1068.28L1198.5 1073.03ZM1260.63 1077.4L1255.22 1080.68L1248.53 1076.42L1253.93 1073.15L1260.63 1077.4ZM1246.63 1076.4L1241.57 1079.46L1233.87 1074.56L1238.93 1071.49L1246.63 1076.4ZM1224 1069.46V1077.94L1215.72 1072.69V1064.19L1224 1069.46ZM1206.5 1068.03V1076.91L1199.5 1072.48V1063.6L1206.5 1068.03ZM1190 1067.65V1076.15L1182.5 1071.47V1062.9L1190 1067.65ZM1252.98 1072.55L1247.59 1075.82L1239.89 1070.92L1245.27 1067.66L1252.98 1072.55ZM1173.7 1067.16V1074.35L1166 1069.56V1062.36L1173.7 1067.16ZM1237.99 1070.9L1232.93 1073.96L1225.44 1069.2L1230.5 1066.13L1237.99 1070.9ZM1214.72 1063.55V1072.06L1207.5 1067.48V1058.96L1214.72 1063.55ZM1198.5 1062.96V1071.84L1191 1067.1V1058.21L1198.5 1062.96ZM1181.5 1062.27V1070.84L1174.7 1066.61V1057.97L1181.5 1062.27ZM1244.33 1067.06L1238.94 1070.32L1231.46 1065.55L1236.83 1062.3L1244.33 1067.06ZM1165 1061.73V1068.94L1157.96 1064.57V1057.35L1165 1061.73ZM1229.56 1065.53L1224.5 1068.6L1216.16 1063.29L1221.22 1060.22L1229.56 1065.53ZM1206.5 1058.32V1066.85L1199.5 1062.41V1053.86L1206.5 1058.32ZM1190 1057.58V1066.46L1182.5 1061.72V1052.83L1190 1057.58ZM1173.7 1057.33V1065.98L1166 1061.18V1052.46L1173.7 1057.33ZM1235.89 1061.7L1230.52 1064.95L1222.18 1059.65L1227.54 1056.4L1235.89 1061.7ZM1156.96 1056.72V1063.95L1150.11 1059.7V1052.45L1156.96 1056.72ZM1220.28 1059.62L1215.22 1062.69L1207.95 1058.05L1213.01 1054.99L1220.28 1059.62ZM1198.5 1053.22V1061.78L1191 1057.03V1048.45L1198.5 1053.22ZM1181.5 1052.19V1061.08L1174.7 1056.78V1047.88L1181.5 1052.19ZM1141.1 1055.28V1060.67L1134.5 1056.23V1051.18L1141.1 1055.28ZM1165 1051.83V1060.55L1157.96 1056.17V1047.37L1165 1051.83ZM1149.11 1051.83V1059.08L1142.1 1054.72V1047.46L1149.11 1051.83ZM1226.59 1055.8L1221.24 1059.05L1213.96 1054.41L1219.31 1051.18L1226.59 1055.8ZM1212.06 1054.39L1207.01 1057.46L1199.95 1052.96L1205 1049.9L1212.06 1054.39ZM1190 1047.81V1056.39L1182.5 1051.64V1043.04L1190 1047.81ZM1173.7 1047.25V1056.15L1166 1051.28V1042.37L1173.7 1047.25ZM1156.96 1046.74V1055.54L1150.11 1051.27V1042.41L1156.96 1046.74ZM1141.1 1046.83V1054.1L1134.5 1050V1042.71L1141.1 1046.83ZM1218.37 1050.58L1213.02 1053.82L1205.96 1049.32L1211.29 1046.09L1218.37 1050.58ZM1204.06 1049.3L1199.01 1052.36L1191.45 1047.55L1196.5 1044.49L1204.06 1049.3ZM1181.5 1042.4V1051.01L1174.7 1046.7V1038.07L1181.5 1042.4ZM1149.11 1041.77V1050.65L1142.1 1046.28V1037.34L1149.11 1041.77ZM1165 1041.74V1050.64L1157.96 1046.19V1037.28L1165 1041.74ZM1210.35 1045.49L1205.02 1048.72L1197.46 1043.91L1202.78 1040.69L1210.35 1045.49ZM1195.56 1043.89L1190.51 1046.95L1182.95 1042.13L1188 1039.08L1195.56 1043.89ZM1173.7 1037.43V1046.06L1166 1041.18V1032.53L1173.7 1037.43ZM1141.1 1036.71V1045.65L1134.5 1041.54V1032.53L1141.1 1036.71ZM1156.96 1036.64V1045.56L1150.11 1041.22V1032.3L1156.96 1036.64ZM1201.84 1040.09L1196.51 1043.31L1188.95 1038.5L1194.27 1035.28L1201.84 1040.09ZM1187.06 1038.48L1182.01 1041.54L1175.15 1037.17L1180.2 1034.11L1187.06 1038.48ZM1149.11 1031.67V1040.59L1142.1 1036.15V1027.23L1149.11 1031.67ZM1165 1031.89V1040.55L1157.96 1036.09V1027.41L1165 1031.89ZM1193.32 1034.68L1188.01 1037.9L1181.15 1033.53L1186.45 1030.32L1193.32 1034.68ZM1179.26 1033.51L1174.21 1036.57L1166.45 1031.63L1171.5 1028.57L1179.26 1033.51ZM1141.1 1026.59V1035.52L1134.5 1031.34V1022.41L1141.1 1026.59ZM1156.96 1026.77V1035.46L1150.11 1031.12V1022.41L1156.96 1026.77ZM1185.51 1029.73L1180.21 1032.93L1172.45 1027.99L1177.74 1024.79L1185.51 1029.73ZM1170.55 1027.97L1165.51 1031.03L1158.41 1026.51L1163.46 1023.46L1170.55 1027.97ZM1149.11 1021.77V1030.48L1142.1 1026.04V1017.31L1149.11 1021.77ZM1176.79 1024.19L1171.51 1027.39L1164.41 1022.88L1169.69 1019.68L1176.79 1024.19ZM1162.52 1022.86L1157.47 1025.91L1150.56 1021.51L1155.6 1018.46L1162.52 1022.86ZM1141.1 1016.67V1025.41L1134.5 1021.22V1012.42L1141.1 1016.67ZM1168.74 1019.08L1163.47 1022.28L1156.56 1017.88L1161.82 1014.69L1168.74 1019.08ZM1154.66 1017.86L1149.62 1020.91L1142.55 1016.41L1147.59 1013.36L1154.66 1017.86ZM1160.88 1014.09L1155.62 1017.28L1148.55 1012.78L1153.8 1009.6L1160.88 1014.09ZM1146.65 1012.76L1141.61 1015.81L1134.95 1011.52L1139.99 1008.52L1146.65 1012.76ZM1152.86 1009L1147.61 1012.18L1140.95 1007.95L1146.24 1004.8L1152.86 1009ZM1159.05 1005.25L1153.81 1008.42L1147.2 1004.23L1152.49 1001.09L1159.05 1005.25Z" stroke="#66BFF2"/>
</g>
<defs>
<filter id="filter0_f_30_6" x="554" y="1429.31" width="273.5" height="241.333" filterUnits="userSpaceOnUse" color-interpolation-filters="sRGB">
<feFlood flood-opacity="0" result="BackgroundImageFix"/>
<feBlend mode="normal" in="SourceGraphic" in2="BackgroundImageFix" result="shape"/>
<feGaussianBlur stdDeviation="10" result="effect1_foregroundBlur_30_6"/>
</filter>
<filter id="filter1_f_30_6" x="365.5" y="1312" width="242.5" height="223" filterUnits="userSpaceOnUse" color-interpolation-filters="sRGB">
<feFlood flood-opacity="0" result="BackgroundImageFix"/>
<feBlend mode="normal" in="SourceGraphic" in2="BackgroundImageFix" result="shape"/>
<feGaussianBlur stdDeviation="10" result="effect1_foregroundBlur_30_6"/>
</filter>
<filter id="filter2_f_30_6" x="252.5" y="1242.41" width="176.916" height="183.991" filterUnits="userSpaceOnUse" color-interpolation-filters="sRGB">
<feFlood flood-opacity="0" result="BackgroundImageFix"/>
<feBlend mode="normal" in="SourceGraphic" in2="BackgroundImageFix" result="shape"/>
<feGaussianBlur stdDeviation="10" result="effect1_foregroundBlur_30_6"/>
</filter>
<filter id="filter3_f_30_6" x="104" y="1143.94" width="208.5" height="197.642" filterUnits="userSpaceOnUse" color-interpolation-filters="sRGB">
<feFlood flood-opacity="0" result="BackgroundImageFix"/>
<feBlend mode="normal" in="SourceGraphic" in2="BackgroundImageFix" result="shape"/>
<feGaussianBlur stdDeviation="10" result="effect1_foregroundBlur_30_6"/>
</filter>
<filter id="filter4_f_30_6" x="63.7677" y="962.585" width="323.025" height="286.025" filterUnits="userSpaceOnUse" color-interpolation-filters="sRGB">
<feFlood flood-opacity="0" result="BackgroundImageFix"/>
<feBlend mode="normal" in="SourceGraphic" in2="BackgroundImageFix" result="shape"/>
<feGaussianBlur stdDeviation="10" result="effect1_foregroundBlur_30_6"/>
</filter>
<filter id="filter5_f_30_6" x="574.5" y="1251.96" width="428" height="155.539" filterUnits="userSpaceOnUse" color-interpolation-filters="sRGB">
<feFlood flood-opacity="0" result="BackgroundImageFix"/>
<feBlend mode="normal" in="SourceGraphic" in2="BackgroundImageFix" result="shape"/>
<feGaussianBlur stdDeviation="10" result="effect1_foregroundBlur_30_6"/>
</filter>
<filter id="filter6_f_30_6" x="506.503" y="808.945" width="365.757" height="396.555" filterUnits="userSpaceOnUse" color-interpolation-filters="sRGB">
<feFlood flood-opacity="0" result="BackgroundImageFix"/>
<feBlend mode="normal" in="SourceGraphic" in2="BackgroundImageFix" result="shape"/>
<feGaussianBlur stdDeviation="10" result="effect1_foregroundBlur_30_6"/>
</filter>
<filter id="filter7_f_30_6" x="1114" y="980.5" width="223" height="206" filterUnits="userSpaceOnUse" color-interpolation-filters="sRGB">
<feFlood flood-opacity="0" result="BackgroundImageFix"/>
<feBlend mode="normal" in="SourceGraphic" in2="BackgroundImageFix" result="shape"/>
<feGaussianBlur stdDeviation="10" result="effect1_foregroundBlur_30_6"/>
</filter>
</defs>
</svg>
